<svg xmlns="http://www.w3.org/2000/svg" width="2504" height="2504" viewBox="0 0 1878 1878"><path d="M1578.3 1.1c-.5.5-12.9 3.9-27.4 7.5-25.6 6.3-54.2 15.1-64.4 19.8-2.7 1.3-8.8 3.8-13.5 5.7-7.9 3.1-8.3 3.4-5.5 4 1.7.4 5.3.7 8.1.8 4.5.1 6.3-.6 17.3-7 7.4-4.2 16.2-8.3 22.4-10.4 12.1-4 53.8-15.7 54.3-15.2.2.2-3.3 2.7-7.9 5.7-15.4 10.1-19.3 14-12.4 12.6 1.7-.4 7.7-2.9 13.2-5.6 5.6-2.8 10.7-5 11.4-5 .8 0 1-.7.6-1.9-.4-1.4.3-2.6 2.9-4.6 1.9-1.4 3.7-3.2 4-4 .7-1.8-1.7-3.8-3.1-2.4M1468.8 19.5c-28.5 8-45.1 15.7-61 28.4-10.1 8.1-29.8 27.1-28 27.1.7 0 6.2-4.5 12.3-10 25.5-23.2 42.6-32.9 68.2-38.7 6-1.3 11.3-2.3 11.9-2.1.5.2-2.3 2.8-6.3 5.8-7.8 5.9-11.3 10-8.7 10 .9 0 5.1-3.2 9.4-7.1 8-7.2 20.3-15.9 22.3-15.9.6 0 1.1-.5 1.1-1 0-1.8-5.2-.9-21.2 3.5M1624.5 22.6c-6.3 2.2-19.6 6.1-32.9 9.6-6.2 1.6-5.7 3.4.9 2.9 11.4-.8 41.7-10.4 42.3-13.5.5-2.2-1.8-2-10.3 1M246 23.6c0 1.3-.7 1.5-3.5 1-2.6-.5-3.5-.3-3.5.7 0 2.8 7.3 13.3 15 21.4 4.4 4.6 8 8.8 8 9.3 0 .6-1 1.2-2.3 1.5-1.9.5-72.1-1.1-78.7-1.7-1.7-.2-2.5.2-2.5 1.2 0 1.2 1.7 1.6 7.5 2 6.8.5 8.5 1.2 17.7 6.3 5.6 3.1 11.4 5.9 12.8 6.3 1.4.3 2.5 1.3 2.5 2 0 1.6 1.1 1.2-21.5 9.4-18.3 6.7-34.9 14.6-43.8 21-3.1 2.2-8.2 7.3-11.4 11.3-4.3 5.4-8.4 8.9-15.8 13.8-11.6 7.7-14 11.3-5.3 7.8 7.9-3.2 9.2-3 9.6.9.3 2.9-.5 4.2-6 10-15.5 16.5-34.3 45.4-43.6 67.1-2.9 6.8-7.1 18.7-9.2 26.5s-6 18.5-8.5 23.8c-8.6 18.2-21.1 62.4-19 67.4.4 1 .7 3.6.6 5.7-.2 2.1.2 4.4.8 5.1.8 1 .7 2.5-.4 5.7-2.3 6.5-1.2 8 3 3.9 3.8-3.7 3.5-4 5.9 5.5 1.9 7.6 2.1 11.7 1.1 23.7-.8 9.6-.7 9.8 1.9 13.2 1.4 1.9 3.8 6.7 5.2 10.8 4.8 13.2 20.3 42.5 27.8 52.3 1.6 2.2 7 8.2 11.9 13.3 4.8 5.1 9.5 10.9 10.4 13 .8 2 2.2 4.5 3 5.4 1.7 1.9 1 3.8-1.3 3.8-.9 0-3-1.1-4.8-2.5-3.8-2.9-5.6-3.2-5.6-.8 0 1.9 9.5 11.3 17.7 17.4 2.9 2.2 6.2 5.7 7.2 7.7 2.5 4.9 9.8 12 18.7 18.2 17.9 12.4 64 32.4 93.5 40.4 3.1.9 6.6 2.4 7.8 3.3 2.2 1.8 2.2 1.8-12.3 14.7-17.1 15.2-21.5 20.1-19.8 22.5.7.9 1.6 2.6 2.1 3.7.7 1.7 1.6 2 3.7 1.6 2.6-.5 2.7-.4 2.2 3.6-.3 2.2-2.2 6.7-4.2 9.9s-3.6 6.4-3.6 7.2c0 1.4-1.7 3.8-17.8 25.5-7.1 9.6-10 14.2-9.3 14.9.8.8 1.8.4 3.5-1.2 3.7-3.5 4-.9.6 4.5-2.6 4.2-4 9.4-2.5 9.4.3 0 1.7-.7 3-1.6l2.5-1.6v4.3c0 3.8-1.5 6.7-11.9 23.4-6.6 10.4-13.6 20.6-15.6 22.5s-6.1 8-9.2 13.5c-13.1 23.4-19.3 35.4-19.3 37.2 0 1.1-3.4 6.8-7.5 12.8S126 816 126 816.7c0 2.4 3 2.6 4.9.4 2.4-2.7 7.5-2.8 9.4-.1.8 1.1 1.7 1.7 2 1.3 1.3-1.2.7 1.4-2.3 11.2-1.6 5.4-3 10.7-3 11.9 0 1.8.5 1.5 3.4-1.9 3.1-3.7 3.4-3.8 4-1.8.5 1.7-1.9 7.3-9.4 22-10.3 20.3-13.2 28.9-9.5 28.2 1.1-.3 5-5.5 9.4-12.8 4.2-6.9 8.1-12.3 8.6-12 1.7.7.8 8.1-2.5 18.4-1.7 5.5-3.4 12-3.7 14.5s-1.4 5.6-2.3 7c-2.2 3.3-4 8.6-4 12 0 1.5-2.4 10.4-5.4 19.6-14.8 46.3-24.6 80-24.6 84.8 0 1.8 3.5 2.2 4.5.6.3-.5 1.6-1.5 2.7-2.1 2.1-1.1 2.1-1 1.4 6.7-.4 4.4-1.3 11.7-2.1 16.4-3.3 19.8-8.1 64.9-10.4 98-2.9 40.5-3.6 63.5-3.6 112.5 0 58.4 0 58.6 6.7 79.5 4.3 13.4 16.2 40 17.9 40 .8 0 2.9-8.8 2.9-12.5 0-3.2 1-5.5 2.4-5.5.6 0 5.8 9.6 11.6 21.2s13.6 26.3 17.4 32.7c8.5 14.4 29.9 46.1 32.7 48.7 2.1 1.9 2.1 1.8 4.6-1 1.4-1.6 2.8-2.5 3.3-2 1.3 1.4 11.4 20.2 19.1 35.5 14 28 23 41 41.2 59.6 12.1 12.4 14.9 14.1 17.6 10.9.9-1-.1-4.3-4.4-14.5-6.6-15.6-6.7-16.6-2.2-15.7 5.9 1.2 11.1 6.2 29.2 28.4 9.9 12.1 22.7 27.5 28.6 34.3 5.8 6.8 14.3 17.1 18.9 22.9 15.2 19.1 26.5 31.2 58.7 63.1 28.7 28.4 38.4 37.1 39.9 35.6.9-.8-2.4-7.7-5.7-11.8-1.9-2.4-2.9-4.6-2.5-5.5.5-1.3 1.3-1 4.4 1.7 2.1 1.9 7.4 6.1 11.8 9.4 4.3 3.3 17.2 13.8 28.7 23.3 11.4 9.5 25.3 20.8 30.9 25s10.3 8.3 10.6 9c.2.8-3-.4-7.4-2.7-12.8-6.6-10.8-3.4 4.4 7 9.3 6.4 24.7 13.9 28.5 13.9 2.7 0 2.8-.2 2.2-3-.5-2.3-.3-3 .8-3 2.4 0 9.3 3.2 22.9 10.8 13.1 7.3 23.3 11.8 29 12.9l3.3.6-4-3c-2.2-1.6-8.2-5.1-13.3-7.7-5.1-2.7-9-5.1-8.7-5.4 1.2-1.2 9.8 2.7 23.2 10.5 7.8 4.6 14.8 8.3 15.6 8.3s8.2 2.9 16.4 6.4c25.9 11.1 73.2 28.3 100.3 36.4 34.4 10.4 85.2 21.3 114.5 24.6 59.1 6.8 63 7.1 95 7.1 74-.1 163.3-12.6 235-33.2 24.3-6.9 67.8-21.4 86.5-28.8 46.3-18.3 112.9-51.5 150.8-75.2 5.9-3.7 17.9-11.6 26.7-17.7 8.8-6 25.9-17.7 38-25.9 27.4-18.5 32.8-22.9 49-39.2 19.4-19.5 34.9-38.2 54.8-66 3.1-4.4 7.2-9.8 9.1-12 3.3-3.8 3.3-3.9 4.5-1.7.9 1.7.9 3.3-.4 7.4-.8 2.8-1.5 6.3-1.5 7.7 0 1.3-3.6 11.6-8 22.8s-8 21.2-8 22.2c0 4 2.1 3 6.7-3.1 2.6-3.4 10.3-12.9 17.1-21 13.8-16.7 21-26.4 26.7-36.2 2.2-3.6 4.4-6.6 4.9-6.6.6 0 .5.5-.2 1.2s-1.2 2-1.2 3-1.2 4.2-2.6 7.1c-1.9 3.7-2.2 4.8-1 3.8 3.6-3 10.1-19 9.1-22.2-.4-1 2.2-7.4 6.3-15.6 3.8-7.6 11.3-23.3 16.7-34.8 8.8-19 14.2-29.6 19.5-38 1-1.7 1.9-3.8 1.9-4.7.1-1 1.2-2.5 2.5-3.3 1.4-.9 2.9-3 3.5-4.6.8-2.3 1.6-2.9 4-2.9 6 0 7.6 7.9 5.2 25.5-1.3 9.4-.6 14.5 2.2 14.5 2 0 9.1-8 11.1-12.5 1-2.2 4.5-8 7.7-12.8 13.9-20.8 23.6-45.1 28.7-71.8 1.1-5.7 2.5-12.2 3.1-14.4s1.4-7 1.7-10.8c.4-5.3 1-6.9 2.5-7.8 1.4-.7 2.4-.7 3.3 0 1.3 1.1 1.1 3.6-1.8 18.8-.9 4.7-1.2 9.2-.8 10.4.8 1.9.9 2 2.3.4.7-1 3.5-8.1 6-15.9l4.6-14.1 1.9 4c1.5 3.4 1.8 6.6 1.8 21 .1 9.3-.3 22.2-.8 28.5-.9 12.1.2 18.6 2.6 16.2 1.4-1.4 10.7-64 11.4-76.7.2-5 .9-14.2 1.4-20.5.6-6.3 1.1-16.5 1.1-22.7 0-8.3.4-11.3 1.4-11.6 1.5-.6 2-3.3 4-22.7 1.8-17 2.8-22 4.9-23.5 1.2-.9 1.4-4.1 1.4-17-.1-28.4 1.4-55.5 3.1-55.5 1.8 0 5 40.1 5.1 61.7 0 12.9.2 15.3 1.5 15.3 3.5 0 .6-60.9-4-83-.8-3.6-1.9-13.3-2.5-21.5-2.2-29.6-4.2-51.9-5.7-61.8-.8-5.6-1.6-11.6-1.8-13.2-.7-6.4-1.7-11.2-3-16-.8-2.8-2.9-10.8-4.6-18-5.5-23.1-20.1-62.9-23.5-64.2-.7-.3-4.9 2.3-9.1 5.8-15 12.1-35.7 24.2-46.3 27.3-5.4 1.5-5.7 1.8-18 17.3-28.6 36-53.8 64-88.6 98.3-24.5 24.1-32.8 31.5-62.4 55.1-58.8 47.1-103.3 69.1-191 94.3-46.2 13.3-118.9 29.6-131.7 29.6h-5.5l.5-2.9c3.3-16.2 3.4-58.5.2-81.6-7-52-22.4-93.6-50.2-135.9-16.7-25.4-33.5-46-55.7-68.1-50.5-50.2-95.4-74.5-151.6-82.1-5.8-.7-13.6-1.4-17.3-1.4-8.3 0-9.2-1.3-4.8-6.7 12.6-15.4 19.1-23.9 19.1-25.1 0-.8-.9-1.2-2.2-1-1.5.2-5.1 3.9-10.5 10.8-4.6 5.8-10.6 13-13.5 16.2l-5.3 5.6-12 2.7c-30.4 6.9-57.4 17.9-86.4 35.4-8.4 5.1-15.4 9.1-15.5 8.9s-1.6-5.4-3.4-11.7c-1.8-6.2-6-18.4-9.3-27-10.3-26.3-12.4-35.4-15.4-65.6-.8-8.8-2-17.8-2.7-20l-1.1-4-1.3 3c-.8 1.8-1.3 7.3-1.4 14-.1 15.2-1.7 35.1-3.1 37.7-1.1 2-1.3 2-2.4.5-2.8-3.8-4.9-22.7-6-53.2-1.1-30.3-4-46.9-12.9-73.2-8.8-26-12.8-34.5-15.5-32.9-1.6 1-.7 13.7 1.8 24.1 1 4.4 3.1 13.2 4.6 19.5s3.4 12.9 4.2 14.6 1.3 4 1.2 5c-.2 1.1 0 2.5.4 3.2.9 1.4 0 5.2-1.3 5.2-1.9 0-9.9-17.2-18.6-39.5-16.9-43.8-49.5-90.8-69.5-100.3-22.3-10.7-50.8-2.6-76.1 21.6-16.6 15.8-27.8 41.2-27.8 62.7 0 11.2 2.1 18.8 6.2 22.6 6.9 6.5 8.6 7.6 13.8 9.2 7.8 2.3 23.9 5.7 27.1 5.7 1.5 0 3 .4 3.3.9s2.6 1.2 5.1 1.5c2.5.4 7.6 1.8 11.5 3.2 3.8 1.3 7.5 2.4 8.2 2.4 2.5 0 11.5 4.8 15.1 8 4.8 4.2 6.8 10.2 4.3 12.9-1.7 1.9-1.8 1.9-7.3-.5-21.9-9.7-50.6-8.7-73.9 2.6-27.3 13.2-53.9 45.6-61.3 74.5-3.1 12.2-4.1 20.6-4.1 37 0 17.4 1.4 24.6 6.6 34.5 4.8 9.2 20.9 30.4 28.2 37.1l6 5.6.5 24.9c.5 26.7 1.5 33.1 6.2 42.5 8.8 17.3 27.1 24 53 19.5 22.2-3.9 43.2-11.7 65-24.1 5.5-3.1 10.4-5.7 10.8-5.8.5-.1 1.4.5 1.9 1.4.9 1.3-.2 3.7-5.2 11.5-11 17.5-28.5 55.3-32.1 69.4-1.1 4.1-2.6 8-3.5 8.7-4.3 3.2-33.1 2.8-54-.6-55.3-9.3-144.2-38.5-182.9-60.3-13.6-7.7-17-10.2-30-22.8-7.3-6.9-17.2-15.1-25-20.5-14.4-9.9-20.7-15-33.9-26.9-7.9-7.2-18.2-18.7-21.1-23.5-.5-.9-1.5-2.3-2.2-3.1s-2.6-3.1-4.3-5.1c-1.6-2-3-4.2-3-4.8s-.3-1.1-.8-1.1c-.4 0-1.6-1.7-2.7-3.8-1.1-2-3-5.1-4.2-6.7-7.2-9.9-16.7-38.6-19.4-59-1.6-11.7-2.2-54.7-1-71 2.1-27 9.3-67.9 16.8-94.3 2-7 4.6-16.3 5.7-20.7 1.2-4.4 2.6-8.9 3.3-10 .6-1.1 2.5-6.4 4.2-11.9 1.7-5.4 3.5-10.3 4-11 .5-.6 3-6.1 5.6-12.1 8.2-19.2 23.5-50.4 34-69.5 5.6-10.2 12.6-23 15.5-28.5 12.1-22.6 44.7-79.7 54.4-95.3 12.1-19.5 22-33 33.8-46.3 15.6-17.4 45.9-44.7 73.3-65.8 26.4-20.4 32.7-24.7 66-45.1 5.8-3.5 10.5-7.1 10.5-7.8 0-2.1-15.6-.9-28.5 2.2-5.5 1.3-13.6 2.9-18 3.6-14.1 2-55.8 11.4-58 13-.5.4-3.5 1.5-6.5 2.3-3.1.9-7.6 3-10.1 4.6-4.8 3.2-8.9 4.3-9.5 2.6-.5-1.3 15-11 30.7-19.3 10.6-5.7 12.1-6.2 17.8-6.2 6.2 0 17.2-2.3 20.1-4.1 1.5-1-7.8-.4-12.7.8-1.3.3-2.3.1-2.3-.5 0-.5 4.8-2.9 10.8-5.3 5.9-2.4 13.2-5.7 16.2-7.5 6.8-3.9 26.6-14.2 42.5-22.2 6.6-3.3 23.5-11 37.5-17s36.3-15.9 49.5-21.9c35.8-16.4 67.6-28.7 101.4-39.2 8.6-2.7 18.2-5.8 21.5-7 15.6-5.8 3.8 1.5-33.4 20.6-25 12.9-58.7 31.5-69.5 38.4-5.1 3.2-9.5 5.9-10 5.9-1.5 0-15.5 9.2-15.5 10.2 0 2.3 12.2-2.7 17.1-7 1.9-1.6 4.9-3.7 6.7-4.6s6.3-3.6 10-6 18-10.3 31.7-17.6c13.8-7.3 35.6-19 48.5-26 29.5-16 36.3-19.4 42.8-21.5 5.8-1.9 6.3-2.7 2.9-4.2-2-.9-3.9-.4-11.3 2.8-4.8 2.2-10.4 4.4-12.4 4.9-9.9 2.5-22.3 6.2-30 8.9-4.7 1.6-16.8 5.5-27 8.7-19.8 6.1-44.8 15.6-65 24.9-27.2 12.4-62.2 27.5-63 27-.4-.2-1.3-3.3-1.9-6.7-4.5-23-15.6-63.4-25.5-92.4-13.7-40.4-36-92-49.9-115.6-11.3-19.3-28.6-39.5-39.2-45.9-5.7-3.4-6.8-4.9-3.7-5 1.2 0 1-.3-.7-1-3-1.2-3-1.2-3.7 4.2-.5 3.8-.1 5.2 3 10.1 1.9 3.2 3.1 5.8 2.8 5.8-.4 0-.1.4.6.9.9.5 1.4 4.1 1.7 10.9.4 12-.5 13.8-5.5 10.2-1.6-1.2-3-2.5-3-3 0-.6-1.1-1.2-2.5-1.6-1.3-.3-2.7-1.4-3-2.4-.3-.9-2.9-3-5.8-4.5-2.8-1.6-6.5-3.9-8.2-5.1-1.6-1.2-9.1-5.4-16.5-9.2-10.5-5.5-15.3-7.4-21.5-8.6-4.4-.8-9.4-2-11-2.6-3-1.2-30.2-4.3-38-4.4-2.2 0-9 .6-15.1 1.3-8.2.9-13 .9-19 .1-4.3-.6-14.2-1.5-21.9-2-7.7-.6-16-1.4-18.5-2-2.5-.5-13.5-1.4-24.5-2-14.4-.8-20.5-1.4-22.2-2.5-2.8-1.9-3.3-1.9-3.3.1m51.1 6.8c13.5 1.4 33.7 3.1 45 3.8l20.4 1.2 20 11.1c20.5 11.2 31.2 18.2 35.2 22.9 2.3 2.6 5.7 3.4 6.7 1.7 1.2-1.9-12.1-12.8-21.5-17.5-9.3-4.8-21.9-12.4-21.9-13.3 0-.7 7.3.6 21 3.8 22.1 5.2 30.8 8.7 45 18.2 8.1 5.4 34 30.7 34 33.3 0 .8-2.1 2.5-4.7 3.7l-4.8 2.2 5.7.5c7 .6 9.8 2.6 16.2 11.6 19.9 27.7 29.6 44.9 36.5 64.7 5.2 14.9 5.8 16.2 7.6 14.7 1.1-.9.2-4.4-4.7-19.3-3.3-10-6.9-19.1-7.9-20.3-1.1-1.1-1.9-2.7-1.9-3.5s-1.5-3.8-3.4-6.6c-1.9-2.9-3.7-6.1-4.1-7.2-.3-1.1-2.5-3.9-4.9-6.3-2.3-2.4-5.7-6.4-7.4-8.9-1.6-2.5-3.7-5.1-4.6-5.8-.9-.8-1.6-2-1.6-2.8 0-.9-1.9-3.2-4.3-5.3-2.3-2.1-5.1-5.4-6.1-7.3l-1.9-3.4 3.2-4.6c4.4-6.4 6.1-11.8 6.1-19.1 0-8-2.2-16.4-6.5-24.5-1.9-3.6-3.3-6.6-3.2-6.8.9-.9 10.5 6.7 16.4 13.1 8.6 9.2 19.1 26.8 34.8 58.1 17.7 35.2 31.6 70 43 107.5 6.7 22.1 19.7 74.3 19.3 77.3-.2 1.7-1.7 2.6-6.9 4.2-3.6 1.1-20.6 9.1-37.8 17.8-17.2 8.8-31.4 15.7-31.7 15.5-.2-.2.3-5.8 1-12.4 4.4-37.3 2.3-63.5-7.5-92.9-14-41.9-47.4-76.6-90.6-93.9-20.5-8.2-37.8-11.6-58.3-11.6-21.3 0-37.5 3.6-56.7 12.5-15.6 7.3-41.4 25.3-50.3 35.2-44.4 49-65.3 116.5-53.5 172.8 2.9 14.2 3.1 17.5 1 17.5-6.6 0-36-22.3-52.8-40-5.2-5.5-12.6-14.6-16.4-20.2-16-23.6-22.8-40.9-24.7-62.3-.9-10.1.8-35.1 2.8-40.6 2.3-6.6 3.2-13.9 1.7-13.9-.6 0-3.3 3-5.9 6.7-6 8.5-12.8 16-13.8 15.1-.4-.4 1.1-4.3 3.4-8.5 2.2-4.3 5.6-10.7 7.4-14.3s3.6-6.7 4.1-6.8c.4-.2.7-.8.7-1.4 0-2.6 11-16.6 24.7-31.4 5.7-6.2 10.3-11.4 10.3-11.6 0-.3-1.3-.3-3 0-2.1.3-3 0-3-1 0-3 7.4-7.8 25.8-16.8 10.5-5.1 19.2-9.8 19.2-10.3 0-1.3-7.3-.1-17.8 3-4.8 1.4-10.8 2.8-13.5 3.3-4.7.7-4.7.7-3-1.3 2.2-2.5 18.7-10.4 34.2-16.4 14.1-5.5 43.2-13.1 68.1-17.9 22.5-4.2 25.4-5 27-6.9 1.8-2.2.6-4.1-4.4-7.2-2.4-1.5-8.7-6.9-13.9-11.8-5.2-5-11.3-10.5-13.6-12.3-5.9-4.7-5.4-5.6 2.7-4.8 29.4 3 69.2 10.9 80.7 16.1 1.7.8 7.5 3.2 13 5.5 15.1 6.4 55.6 18.5 45.8 13.8-1.3-.6-2.3-1.5-2.3-1.9s-2.1-1.1-4.7-1.5c-5.3-.7-10.9-2.8-13.3-4.8-.8-.8-5.3-2.6-9.9-4.1-4.7-1.4-10.2-3.5-12.3-4.6s-5.8-2.4-8.1-2.9-8.7-2.3-14.2-4c-12.5-3.9-38.2-9-63.2-12.6-36.5-5.2-15.8-5.9 32.8-1M399 37.1c35.4 6.1 50.9 14 76.8 39.2 8.2 8 10.7 12.2 8.2 13.7-1.9 1.2-3.5-.2-13.3-11.1-18.1-20.2-37.2-30.5-69-37.4-6.3-1.3-14.6-2.8-18.5-3.1-4.6-.4-7.7-1.3-9.3-2.6l-2.4-2 8 .7c4.4.3 13.1 1.5 19.5 2.6M265.5 60.6c5.6.5 13 4.2 13 6.4 0 1.1-5.3 2.4-21 5.3l-20.9 4-8.6-2.8c-11.5-3.7-22-9.2-22-11.6 0-1.5 1-1.9 6.8-2.1 9.1-.4 46.5.2 52.7.8M69 360.9c0 3.2-7.2 26.6-8.6 28-1.2 1.2-1.3-1.2-.3-6.5 1.3-7.4 7.1-25.4 8.1-25.4.4 0 .8 1.7.8 3.9m390 26.4c0 .8-4.7 3.2-10.7 5.7-15.3 6.2-26.8 11.7-30 14.4-2.6 2.1-25.2 13.2-31.9 15.6-2.8.9-2.7.8 1.1-2.6 10.2-9.1 24.7-16.7 52-27.3 9.9-3.9 18.3-7 18.8-7.1.4 0 .7.6.7 1.3m200.8 498.1c24.4 25.3 33 44.1 31.9 69.6-.4 9.7-1 13.1-3.9 21.5-10.8 31.2-30.3 55.6-54 67.5-20.9 10.5-44.8 9.1-71.6-4.2-8.5-4.1-12-6.6-19.3-13.5-11.7-11.2-15.8-17.7-21-33.2-6.4-19.4-6.5-31.3-.2-51.6 4.8-15.2 11.6-26.4 24.3-39.8 12.8-13.6 26.1-22.8 36.5-25.3 2.5-.6 1.5.7-6.6 8.7-19.6 19.5-30.2 37.9-34.9 60.9-1.9 8.8-2.1 12.6-1.7 24 .6 15.2 2.4 23.2 7.3 33.5 6.6 13.9 17.1 24.2 31.9 31.5 10.5 5.2 17.9 7 29 7 18.7 0 32.1-5.6 45.6-19 7.7-7.6 9.3-9.8 14.3-20 7.8-16 10.7-27.7 11.3-45.7 1.2-33.2-7.3-56.4-28.1-76.4-6.1-5.9-7.2-7.9-4.2-7.9.8 0 6.8 5.6 13.4 12.4m-74.3 17.3c16.9 5.7 21.8 28.5 8.3 38.5-14.7 11-32.8 2.2-32.8-16 0-4.8.7-7.3 3.6-13 1.9-3.9 4.7-8.1 6.1-9.2 3.1-2.5 8.2-2.6 14.8-.3m371.3 47.4c40.7 6.6 79.4 24.3 113.1 51.7 28.4 23.1 63.6 62 84.8 93.7 34.2 51.3 52.4 108.3 54 169 1.3 50.6-8.7 82.4-40.8 130.5-29.7 44.3-70.6 76-127.4 98.3-36.4 14.4-62.6 19.5-94 18.3-57.6-2-121-25.9-168.3-63.3-13.3-10.4-41.3-38.7-50-50.4-26.1-35.2-39.2-68.8-45.8-118.4-2.4-17.5-2.4-45.1-.1-60.5 3.6-23.4 10.1-46.4 21.4-75 31.5-79.9 83.4-142.8 141.8-171.8 15.1-7.5 29.3-12.7 51-18.7 9.4-2.5 17.6-4.8 18.4-5.1s.6.7-.8 2.8c-6.4 10.2-13.1 17.9-36.9 42-23.7 24-28.1 29.3-24.4 29.3 2.1 0 23.7-19.3 37.6-33.6 7.7-8 16.8-18.3 20.1-22.9 9-12.4 13.1-16.7 17.3-17.8 4.5-1.3 12.8-.7 29 1.9m-292.8.3c0 .2-.8 1-1.7 1.7-1.6 1.3-1.7 1.2-.4-.4s2.1-2.1 2.1-1.3m-6 6.9c0 .2-1.2 1.4-2.7 2.8l-2.8 2.4 2.4-2.8c2.3-2.5 3.1-3.2 3.1-2.4m9.7 10.9c-.2 1.8-.4.4-.4-3.2s.2-5 .4-3.3c.2 1.8.2 4.8 0 6.5m-17.7-3.8c0 .2-.8 1-1.7 1.7-1.6 1.3-1.7 1.2-.4-.4s2.1-2.1 2.1-1.3m16.7 16.3c-.3 1-.5.4-.5-1.2 0-1.7.2-2.4.5-1.8.2.7.2 2.1 0 3m-16.7 32.6c0 .2-1 1.2-2.2 2.3l-2.3 1.9 1.9-2.3c1.8-2.1 2.6-2.7 2.6-1.9M1749.5 1361c-4.7 42.5-13.4 75.6-25.6 97.7-6.4 11.5-20.9 30.1-20.9 26.7 0-1.8 7.1-25.8 8.4-28.3.8-1.4 4.1-12.7 7.5-25.1s6.9-24.6 7.7-27.1 1.9-7 2.3-10c.5-3 1.5-6.8 2.2-8.4.6-1.7 1.3-3.9 1.5-5 1.1-7.1 6-20.9 11.5-32.3l6.4-13.3.3 5.3c.2 2.9-.4 11.8-1.3 19.8m-1544 71.3c6.2 18.6 20.9 55.2 23.1 57.8.8.8 1.4 2.4 1.4 3.3 0 1 .7 3.3 1.6 5.1.9 1.9 1.4 4.2 1.2 5.2-.4 1.4-.8 1.1-2.4-1.6-1-1.8-3.1-5.2-4.6-7.5-1.5-2.2-2.8-4.8-2.8-5.7s-.9-2.7-1.9-4.1c-6.6-8.3-22.2-52.7-23.6-67.3-.6-5.3-.5-5.8.8-4.2.8.9 4 9.5 7.2 19m1496.7 57.9c-.7.7-1.2.8-1.2.2 0-1.4 1.2-2.6 1.9-1.9.2.3-.1 1.1-.7 1.7m-45.2 13.4c0 1.8-14.4 34.1-21.6 48.6-10.8 21.6-19.8 36.7-27.6 46.4-3.5 4.2-7.4 9.1-8.8 10.9-4.9 6.3-9.1 10.7-9.7 10.2-.9-.9 5.8-19.7 7.7-21.5.9-.9 2.3-2.8 3-4 1.8-3.6 9-24.8 9-26.7 0-.9 2.2-6 4.9-11.3 2.7-5.4 6.7-13.5 8.9-18.2 4.7-10 11.8-18.2 24.1-28.1 8.1-6.5 10.1-7.8 10.1-6.3"/><path d="M920 1045.6c-25.3 2.1-53.6 10.2-77.4 22-25.8 12.8-45.8 29.9-56.9 48.5-2.1 3.5-5.1 10.7-6.9 15.9-2.6 8.2-3.1 11.4-3.5 23-.6 16.4.8 23.5 7.2 36.5 5.9 12 12.5 20.6 26.9 35 13.2 13.1 47.8 41.4 63.4 51.8 21.3 14.1 38.8 21.1 53.2 21.1 15.9.1 25.2-4.4 54.5-26.4 40.2-30.2 65.5-56.3 78.4-81 8.9-17.2 11.8-32.4 9.1-48.7-3.4-21.3-11.9-37.9-28-54.7-20.8-21.6-47.2-35.3-78.4-40.6-11-1.8-33-3.1-41.6-2.4m29.3 55.9c19.5 2.6 39.3 8.5 55.8 16.8 9.5 4.8 10.8 7 4.2 7.5-2.8.2-7.5-.8-14.5-3.2-24.9-8.5-46.8-12-74.8-12-21.8 0-33.4 1.3-54 5.9-6 1.4-11.7 2.5-12.6 2.5-1.6 0-1.6-.1 0-1.9 6-6.6 30.6-14 54.6-16.4 9.4-1 31.1-.5 41.3.8M803.1 1055.3c-9.8 4.9-20.8 18.7-25 31.4-2.5 7.6-2.8 16.5-.5 18.4 2 1.7 2.6.8 5.9-9.3 4.4-12.9 10.3-20.7 22.7-29.7 7.3-5.2 9.4-8.2 7.8-11-1.4-2.8-5.3-2.7-10.9.2M1052.7 1061.7c-2.7 2.7 2.2 8.9 9.7 12.3 7.1 3.1 12.3 8.4 16.2 16.4 3.5 7.1 5.8 9.4 7.9 7.6.8-.7 1.5-2.1 1.5-3.1 0-5.3-8.7-20.6-14.9-26.2-5.6-5-18.1-9.3-20.4-7M932 1332.6c-1.9.2-8 .9-13.5 1.5-10.9 1.1-26.6 4-38.8 7.1-8.4 2.1-10.7 1.8-15-1.8-2.3-2-3.2-2.2-5.5-1.3-8.2 3.1-12.8 12.8-12 25.3s7.4 21.6 15.5 21.6c4.7 0 7-1.4 9.3-5.9 1-2.1 3.3-5 4.9-6.4 5.4-4.5 23.8-10.7 42.6-14.4 12.3-2.3 36.4-2.4 50.5 0 18.2 3.1 25 5.9 32.5 13.6 5.6 5.7 11.3 8.5 15.7 7.6 8-1.8 17-16.6 17.6-29 .5-9.5-1.3-14.5-6-16.8-5-2.5-7.7-1.5-15.3 5.4-7.5 6.8-9.2 7.1-16.8 3.3-13.5-6.9-25.7-9.5-46.2-9.9-8.8-.2-17.6-.1-19.5.1M487 32.8c0 .4 3.6 3.6 8.1 7.2 25 20 43.3 47 59.2 87.5C563.9 152 589 226.3 596 251c1.1 4.1 4.2 14.1 6.7 22.2l4.6 14.8h3.1c1.9 0 15-5.8 34.6-15.3 17.3-8.5 35.5-17.1 40.3-19.3 4.8-2.1 8.3-4 7.8-4.2-.6-.2-4.8 1.3-9.3 3.3-4.6 2.1-14.4 6.3-21.8 9.5-7.5 3.1-20.9 9.6-29.8 14.4-9 4.7-17.3 8.6-18.6 8.6-4.6 0-7-5.3-12.7-27-1.6-6.3-4.7-16.9-6.8-23.5-2.2-6.6-4.9-15.2-6.1-19-9.6-31-14.2-45.3-17.2-53.5-2-5.2-5.9-15.8-8.8-23.5-5.9-16.1-19.9-46.3-23.8-51.5-1.5-1.9-3.4-4.8-4.3-6.5-4-7.4-8.9-14.7-13.7-20.1-2.9-3.2-5.2-6.1-5.2-6.5s-3.5-3.6-7.7-7c-4.3-3.4-9.4-7.7-11.3-9.5-3.4-3.2-9-6.1-9-4.6M1585.3 37.6c-5.9 1.3-.8 2.1 15 2.3 32.3.3 56.1 3.5 83.1 11.1 20.2 5.6 26.8 8.2 37.6 14.6 7.4 4.4 9.6 6.4 7 6.4-.5 0-1 .4-1 1 0 1.4 5.3 1.3 8.5-.2 3.4-1.5 3.2-2.6-1-4.4-2-.8-10.1-4.6-18.1-8.4-17.1-8.2-19.2-9-39.4-14.1-24-6.1-38.7-8-66-8.4-12.9-.2-24.5-.1-25.7.1M1365.6 47.2c-11.6 11.6-17.3 20.3-29.1 44.3-14.9 30.5-29.7 67.9-46.6 118.5-9 26.6-11.9 35.9-18.9 59.7l-2.1 7.3h-5.1c-5.5 0-17.1-4.5-16.5-6.4.2-.6 1.6-1.7 3.1-2.4 1.6-.8 2.5-1.9 2.2-2.7-.2-.7.4-1.5 1.5-1.8 1.7-.5 1.9-.9 1-2.4-2.3-3.9-5.1-6.4-9.3-8.2-6.8-3-31.9-7.5-67.8-12.1-28.1-3.6-26.6-3.1-24.5-8.3.5-1.1.3-1.7-.7-1.7-2 0-3.8 2.1-3.8 4.5 0 3.2 2 4.5 6.6 4.5 2.4 0 7.4.7 11.3 1.5s16.6 3 28.2 5c18.3 3 50.6 10 51.8 11.1s-1.4 1.1-10.9-.2c-13.5-1.8-30.7-1.7-49.5.1-8.2.8-15.4 1.5-16 1.6-.5 0-.1.4 1 .8s10.1.4 20-.1c24.1-1.2 38.4-.1 52.3 3.8 5.6 1.6 6.8 3.8 2.6 4.8-1.4.4-8.6.7-16 .7-7.4.1-13.4.4-13.4.8 0 1.3 16.9 8.7 26 11.5 10 3 27.9 7.3 62.6 15 38.2 8.5 62.6 15.6 85.9 24.8 10.6 4.2 12.8 5.5 11.9 6.9-1 1.6-5.2.9-26.6-4.5-11.7-3-23.7-5.8-26.7-6.1-12.2-1.6-3 2.4 33.5 14.6 36 12 58 19.9 74.9 27 6.1 2.6 7.3 3.5 6.3 4.4-1.7 1.6-22.2.2-36.7-2.6-5.7-1.1-10.5-1.8-10.7-1.6-1.4 1.4 4.3 5.1 14.3 9.2 6.5 2.6 20.4 8.8 30.8 13.7 10.5 4.9 26.5 12.4 35.7 16.6 9.6 4.4 16.8 8.3 16.8 9.1s-.6 1.1-1.7.6c-4.9-1.8-18.3-5.3-21.8-5.6-3-.3-4 0-4 1.1 0 1 6.2 4.1 18 9.1 21.5 9 24.7 10.7 24.2 12.2-.2.6-1.4 1.4-2.7 1.7-3.1.7-3.5 2.3-1 4.5 2 1.8 44.2 14.2 50.5 14.8 3.1.3 2.9-2.8-.4-6.6l-3.1-3.4 10.2-5.2c18.9-9.7 33.8-21.1 53.3-40.6 22-21.9 37.2-51.8 43.2-85 2.1-11.3 2.3-42.5.5-54-1.9-11.5-5.7-26.2-9.2-35.2-5.3-13.8-3.7-13.9 6.3-.1 9.1 12.6 11.3 16.2 31.2 50.3 8.7 14.8 27.4 46.4 41.6 70.1s26.8 45.5 27.9 48.4c2.5 6.4 3.7 4.6-15.2 23-13 12.8-15.5 16-12.5 16 1.8 0 27.4-23.9 29.7-27.8 2.4-3.9 3.2-4 5.9-.6 3.5 4.5 2.8 9.3-2.3 15.6-12.2 15-32.5 28.8-52.7 35.9-6.1 2.1-6.7 2.5-7.6 6-1.5 5.7 1.5 7.9 5.2 3.9 1-1.1 7.9-5.2 15.4-9.1s17.2-9.5 21.6-12.3c4.4-2.9 10.6-6.5 13.8-8.1 3.1-1.5 5.7-3.3 5.7-3.8 0-.6.7-1.9 1.7-2.9 2.5-2.8.8-3.3-2.7-.8-5.5 3.9-4.3 1.4 2.8-6.2 11.9-12.5 18.1-27.2 16.6-39.3-1-7.8-2-8.6-3.4-2.4-2.7 12.6-11 31.9-11 25.6 0-2.7-9.8-21.3-17.8-34-4.5-7-19.7-32.2-33.8-56-57.1-96.2-69-113.6-94.3-138.7-18.6-18.5-34.7-30-58.9-42-22.8-11.2-45.8-15.8-74.2-14.7-22.6.9-38.7 4.4-57 12.5-22.4 9.8-32.6 16.8-51.3 35.2-7.6 7.4-14.5 14.1-15.4 14.9-.8.8-3.9 4.4-6.9 8.2-6.3 7.9-6.8 8.3-9.7 7.5-1.7-.4-2.7-2.1-4.2-6.8-1-3.5-2.1-7.2-2.2-8.3-.2-1.1-1.2-7.2-2.3-13.5-4.6-26.6-5.9-50.7-3.4-64 1.7-9.2 1.8-12 .2-12-.7 0-2.2 1.5-3.2 3.3-4 6.6-7.6 13.9-7.6 15.1 0 .7-.8 2.1-1.8 3.2-1 1-5.1 8.9-9.1 17.4-3.9 8.5-10.3 21.1-14 28-9.5 17.2-11.1 20.6-11.1 22.8s-3.5 7-4.4 6.1c-.7-.7 9-26.9 18.5-49.9 7.5-18.3 25.2-53.7 33.1-66.5 7.5-12 14.9-18.8 23.9-22.1 3.8-1.4 7.4-2.2 7.9-1.9 1.9 1.2 1 3.4-2.2 5.6-1.8 1.3-4.3 3.2-5.5 4.3-1.1 1.2-3.5 3.2-5.1 4.5-3.1 2.4-5.2 8.1-5.2 14.1 0 4.4 1.5 3.6 7.8-4.1 3-3.5 7.9-9.3 11-12.8s5.7-7 5.8-7.8c.2-.8 1.2-2.6 2.4-3.8l2.2-2.3-4.4-.7c-3.2-.5-6.1-.1-10.6 1.4-7.5 2.6-7.2 2.6-7.2.1 0-4.2-4.1-2-13.4 7.2"/><path d="m1698.1 73.8-13.3 1.5 5 3.2c2.7 1.7 9.4 4.6 14.8 6.5 5.5 1.8 14.4 5.8 20 8.7 5.5 2.9 10.4 5.3 10.9 5.3 1.8 0-2.3-3.4-6.9-5.7-7.2-3.6-16.6-13.1-16.6-16.8 0-.3 2.1-.5 4.8-.5 5 0 7.8-1.2 6.9-2.7-.9-1.4-10.6-1.3-25.6.5M1674 79.8c0 1.5 2.7 7.4 4.7 10.4 1 1.5 5.9 6.2 10.9 10.5 28.7 24.9 56.3 52.4 69.4 69.2 2.4 2.9 6.9 8.1 10.2 11.5 3.3 3.3 7.1 7.8 8.4 9.8 1.3 2.1 2.8 3.8 3.3 3.8 1.2 0 12.2 15 18.9 25.6 11 17.6 19.4 37.4 24.1 56.9 2.5 10.4 2.6 12.2 2.4 34.2-.2 22.4.6 28.8 2.4 18.5 1.2-7.2.8-40.8-.6-49.2-.8-4.1-3.1-13.3-5.3-20.4s-4.1-14.6-4.4-16.5l-.4-3.6 1.9 2.5c1.1 1.4 2.7 3.4 3.6 4.5 1.6 1.9 1.6 1.9 1-1-2-10.2-3-13.4-5.3-17.5-2.2-3.9-3.2-6.1-3.2-7.1 0-1.7-15.3-31.9-21.8-42.9-7.3-12.6-16.9-26.7-28.2-42-20.5-27.5-32.9-36.8-59.5-44.5-4.8-1.4-9-2.3-9.3-2.1-.5.6 3.3 2.3 15.8 7.2 18.1 7 25.4 12.2 39 28 23.4 27.1 39.4 52.9 58.2 94.1 3.1 6.7 4.5 12.3 3.1 12.3-.5 0-6.7-8.2-13.8-18.2-7.2-10-15.7-21.2-19-24.9-10.8-12-16-18.3-21.5-25.4-12.3-16-40.5-45.6-59.7-62.8-6.2-5.5-11.3-10.4-11.3-11 0-.5 1.5-.6 3.6-.2 2.4.4 3.4.3 2.9-.4-.3-.6-1.2-1.1-2-1.1-1.8 0-9.1-3.3-14.2-6.5-2.4-1.4-4.3-2.2-4.3-1.7M1065 184.9c-3 2.1-6.8 4.1-8.5 4.3-6 1-58.4 13-76 17.4-33.8 8.5-68.8 18.9-110.5 32.9-10.7 3.6-26.7 8.6-35.5 11.1-21.3 6-40.3 12.3-41 13.4-1 1.6 2.6 1.1 10.5-1.4 4.1-1.3 12-3.4 17.5-4.6s22.6-6.5 38-11.7c47.8-16.1 88.3-28.2 126-37.8 20.3-5.2 54.3-12.7 63.5-14.1l4.5-.7-3.7 4.1c-2.1 2.3-3.8 4.7-3.8 5.3 0 2.5 22.7-15.8 25.1-20.2 1.5-2.8 0-2.3-6.1 2M1031 214.6c-4.1 2.6-10.3 5.9-13.7 7.5-6.2 2.9-8.4 5.9-4.3 5.9 2.8 0 21.2-9.8 22.5-12 .5-1 1.6-2.7 2.3-3.9.7-1.1 1.1-2.1 1-2-.2 0-3.7 2-7.8 4.5M1134 227.6c-12.4 1.8-27.2 3.6-33 4s-11.3 1.1-12.2 1.6c-1 .5-5.7 1.1-10.5 1.4-4.9.3-11 1.4-13.8 2.4-2.7 1-8.4 2.3-12.5 2.9-4.1.7-7.9 1.6-8.4 2.1-1.4 1.4.9 3.5 2.6 2.4.7-.5 2-.7 3-.6.9.2 1.9-.2 2.2-.7.4-.6 1.3-.8 2.1-.5s9.7-1 19.7-3c10.1-1.9 32.9-5.4 50.6-7.8 29.8-3.9 38-5.6 34.1-7-.8-.3-11.5 1-23.9 2.8M834 237.1c-12.4 2.1-28.6 4.3-36 5-7.4.6-15.1 1.5-17 2-4.6 1.1-16 8.3-13.9 8.7.9.2 7-.8 13.5-2.2 6.6-1.4 17.3-3.6 23.9-5s20.5-4.1 30.9-6.1c18.5-3.6 29-6.4 23.6-6.3-1.4 0-12.6 1.8-25 3.9"/><path d="M1825 251.2c0 .7.5 2 1 2.8.8 1.2 1 .9 1-1.3 0-1.5-.4-2.7-1-2.7-.5 0-1 .6-1 1.2M1791.7 311.7c-.4.6 1.2 6.4 3.4 12.9 4.6 13.8 8.3 28 9.9 37.9 1.2 7.5 4.2 15.5 5.9 15.5 2 0 4.3-4.7 3.3-6.7-.5-1-4.4-13.5-8.7-27.9-5.8-19.3-8.5-26.9-10.5-29.4-1.5-1.8-3-2.9-3.3-2.3M1810.2 334.7c1 4.9 2.8 14.8 3.8 22.2 1 7.3 2.1 13.6 2.4 13.9.4.3.6-2.5.6-6.2 0-4.3.4-6.5 1-6.1 1.6 1 4.8-3.5 5.5-7.7.4-2 1.2-4.4 2-5.4.7-1 1.1-2.4.8-3.1-1-2.6-2.2-1.2-2.9 3.2l-.6 4.5-3.8-3.8c-2.4-2.5-4.1-5.6-4.9-8.7-.7-2.7-1.8-6.3-2.6-8.2-2.6-6.2-3.3-3.3-1.3 5.4M1545 444.1c5.7 4.9 24.3 13.4 43.8 20.1 10 3.4 17.9 6.5 17.5 6.9-1.4 1.4-13.7 3.7-30.3 5.9-19.5 2.4-21.6 2.9-20.4 3.9.5.5 2.9 1.3 5.4 1.9 5.9 1.4 16 .2 36-4.5 16.3-3.7 22.5-5.7 25-7.9 2-1.9.6-2.9-6.5-4.4-10-2.1-28.2-8.4-42.8-14.9-16-7.1-24.5-10.1-28.4-10.1l-2.8.1zM1777.9 444.2c-2.4 5.9-10 17.8-12.1 18.9-1 .6-4.4 3.3-7.4 6-6.6 6-25.6 15.5-46.6 23.3-16.9 6.3-20.4 8-14.3 7 10.6-1.7 36.2-11.7 57.6-22.4 6.5-3.3 11.9-5.6 11.9-5.2 0 1.7-12.8 15.9-19.1 21.1-10.4 8.7-21.1 15.2-43.1 26.1l-20.8 10.3-14.7.8c-15.7.9-20.7 2-21.7 4.6-.4.9-.5 1.7-.3 1.9.3.4 21.5-2.3 25.8-3.2 3.1-.7 4.6 1 2.9 3.1s-.7 1.9 4.8-.9c2.6-1.3 10.6-4.8 17.7-7.9 7.2-3 16.6-7.6 21-10.1s9.6-4.9 11.5-5.2c6.3-1.2 11-4.4 22.8-15.7 13.5-12.8 14.1-13.5 14.2-16.1 0-1 1.8-3.9 4.1-6.3 4-4.4 6.9-9.7 6.9-12.8 0-1.4-.4-1.3-2.6.4-2.5 2-5.4 2.8-5.4 1.5 0-.3 1.1-2 2.4-3.7 5.1-6.7 9.4-18.7 6.7-18.7-.5 0-1.5 1.5-2.2 3.2M1568.5 491c-.8 1.2-.5 1.7 6.6 11.1 8.6 11.3 20.8 30 27.9 42.4 10 17.8 15 23.5 33.5 38.5 5 4 11 9.2 13.5 11.6 8.3 7.8 14.5 9.7 21.3 6.2 2.4-1.2 2.1-2.3-1.1-4.7-4.1-2.9-8.2-3.8-8.2-1.7 0 2.4-2.9 1.9-8.6-1.3-7.7-4.4-30.4-25.2-30.4-27.9 0-1.8 2.2-2.4 5.1-1.4 1.7.7 3.9.4 7.4-.8 2.8-1 7.6-2.3 10.9-2.9 5.7-1 8.6-2.5 8.6-4.2 0-1.6-21.9-1-28.7.7-8.5 2.1-9.1 1.6-18.3-13.7-4-6.8-10.2-16.7-13.7-22-3.4-5.3-6.3-9.9-6.3-10.4 0-.4-1.3-2.3-3-4.2-1.6-1.8-3-3.8-3-4.3s2.8.4 6.3 2c6.3 2.8 40.2 14 42.5 14 .8 0 1.2-.8 1-1.7-.5-2.8-7.9-6.2-24.6-11.3-20.3-6.2-26-8.4-31.4-12-4.6-3.1-6.3-3.6-7.3-2"/><path d="M1683.5 510.1c-2.2.5-7.7.6-12.2.3-7.3-.6-8.4-.4-9 1.1-1 2.7 2.7 5.1 8.7 5.8 4.5.5 6.2.1 14.2-3.3 5-2.2 9.4-4.2 9.6-4.5.8-.8-6.8-.4-11.3.6M1643.2 544c-4 3.8-.5 6 9.5 6 5 0 9.5-1.7 13.8-5.4l3-2.5-12.1-.1c-10.7 0-12.3.2-14.2 2M1605.6 567.5c2 2.5 8.7 8.3 14.8 12.9 16.4 12.4 25.8 21.5 31.3 30.4 2.6 4.2 13.5 20.3 24.2 35.7 25.4 36.5 27.6 40.1 39.8 65.3 5.7 11.8 14.8 29.8 20.3 40 9.6 18 21 42 21 44.2 0 .5-.3 1-.7 1-.5 0-6.9-4.9-14.4-10.9-13.9-11.2-19.9-17.4-19.9-20.9 0-1.1-.7-2.5-1.5-3.2s-1.5-1.8-1.5-2.6c0-.7-1.3-2.8-2.8-4.6-1.6-1.8-3.6-5.1-4.6-7.3s-2.3-4.5-3-5c-.6-.6-2.8-4.3-4.9-8.3-2.2-4.1-4.7-8.2-5.8-9.3-1-1-2.2-3.1-2.5-4.5-.4-1.5-1.5-3.5-2.5-4.5-1.1-1.1-1.9-2.8-1.9-3.8s-.6-2.1-1.4-2.4-2.5-2.5-3.9-4.9c-25.2-44.8-30.7-54.8-30.7-56.1 0-.9-.6-2-1.4-2.4-1.7-1-19.4-27.8-23.1-35.1-2.7-5.1-3.8-6.1-5-4.2-.8 1.2 3.6 9.7 9.5 18.5 9.9 14.7 18.3 29.1 35.9 61.9 19.3 35.8 39.3 69.6 44.8 75.7 1.8 2 3.3 4.3 3.3 5.1s.6 2.3 1.4 3.4c.8 1 1.2 2.9 1 4.1-.4 1.5.3 3.1 2.5 5.5 6.1 6.4 21 29 25.9 39.1 2.8 5.6 10.7 25.7 17.7 44.7s18.1 49.1 24.7 67c13.2 35.7 19.5 53.9 22.3 64.2 1 3.8 2.2 6.8 2.6 6.8 1.5 0 .9-4.3-1.6-11.5-1.4-3.9-3.4-10.2-4.4-14-2.3-8.3-12.5-37.8-28.9-83-17.4-48.3-19.5-54.5-18.8-55.2 1.1-1.1 4.7 3.1 7.6 8.7 1.5 3 5.2 12.2 8.3 20.5 6.5 17.6 34.1 98.8 38.3 112.5 1.6 5.2 3 8.7 3.2 7.8.6-3-11.7-44.4-15.2-51.5-1.9-3.7-3.9-9.8-4.5-13.4-1-5.9-5.5-19.5-19-56.7-2.3-6.2-4.1-12.1-4.1-13.1 0-2.9 7.6-5.1 11.8-3.4 4.6 1.9 4.7.1 0-5.7-5-6.3-16.8-26.7-16.8-29.1 0-1.1 1.5-2.1 4.5-2.9 2.5-.7 4.8-1.7 5.2-2.3 1.3-2.1-3.1-3.8-9.5-3.6-6.2.2-6.5.1-9-3.1-2.7-3.4-7.9-14.2-13.3-27.7-1.5-4-13.4-28.3-26.3-54-24.9-49.7-30.5-59.2-51.2-87-12-16-14.8-20.2-14.2-20.9.4-.3 3.4 3 12.9 13.9 11.3 13 20.2 26.4 32.3 48.4 3.7 6.7 8.7 14.9 11.1 18.2 3.7 5.1 5 6.1 7.4 6.1 1.7 0 3.2-.4 3.6-.9.3-.6-2.4-4.3-6-8.3-6.6-7.3-9-10.7-26.7-37.8-18.6-28.6-37-49-66.3-73.4-19.4-16.3-21.3-17.6-23.8-17.6-1.5 0-1.2.8 1.9 4.5m134.5 222.1c3 2.6 11.3 10.3 18.4 17.3 12.9 12.4 13.1 12.7 16.4 21.3 1.8 4.8 3 9.2 2.6 9.8-.3.5-1.9 1-3.5 1-4.1 0-13.7-9.2-19.7-18.8-2.7-4.3-8.4-13.1-12.9-19.7-4.4-6.6-8.3-12.8-8.7-13.8-1.1-3 1.7-1.9 7.4 2.9M720.5 577.4c-8.2 2.6-17.8 9-19 12.5-.8 2.8 1.2 7.1 3.3 7.1 2.2 0 23-13.7 24.5-16.1 1.5-2.3.1-4.9-2.5-4.8-1.3 0-4.1.6-6.3 1.3M1227 583.6c-17.1 3-31 9.8-47.4 23.2-15.5 12.7-33 38.1-37.1 53.9-2 7.6-1.9 9.3.3 9.3 1.8 0 4.3-5.4 12.3-27.3 5.6-15.3 27.8-37.1 48.4-47.4 19.4-9.8 42.1-10.9 65-3.1 24.5 8.3 43.9 23.2 60.7 46.7 6.6 9.1 19.1 24.3 22.7 27.5 4 3.6 3.5.6-.9-5.7-21.8-31-36.8-48.5-48.5-56.4-12.8-8.6-29.2-15.6-44.7-18.9-7.3-1.5-26.1-2.7-30.8-1.8"/><path d="M1229 600.1c-24.9 5.3-45.6 18.6-60.9 39-6.3 8.3-13.7 20.7-12.8 21.5.2.3 4.3-4.1 8.9-9.8 20.2-24.5 36.5-36.2 60.5-43.4 7.4-2.3 10.7-2.7 21.3-2.7 11.5-.1 13.3.2 22 3.1 17 5.7 29.1 12.8 41.5 24.4 4.2 3.9 7.8 6.8 8.1 6.5 1.4-1.4-1.3-5.2-8.1-11.1-13.7-12-27.7-20-44.8-25.8-12.2-4.1-22.6-4.6-35.7-1.7M612.5 613.5c-25.5 5.6-48.2 22.2-65 47.5-6 9.1-12.5 21.2-14.1 26.6-2.2 7.3 1.1 5.3 5.9-3.6 19.6-36.3 37.6-54 64.2-62.9 45.6-15.3 96.4 7.3 114 50.7 1.4 3.4 3.7 10.8 5.1 16.5 2.8 11.1 3.9 13.7 5.6 13.7 1.9 0 .1-13.2-3.2-23.2-3.9-11.7-10.5-24.1-17.2-32.6-12.8-16-34.4-28.2-58.1-32.7-9.6-1.8-28.9-1.8-37.2 0"/><path d="M623 630.7c-19.9 2-44.9 14.5-63.7 31.7-6.3 5.9-14.5 16.6-12.5 16.6.4 0 5-3.6 10.2-8.1 16.9-14.3 31.4-22.8 49-28.4 6.6-2.1 11.1-2.9 20-3.3 13.4-.5 20.2.8 31.8 6.3 15.8 7.5 26.4 16.5 42.9 36.7 10.4 12.7 12 14.4 12.9 13.5.7-.7-12.9-24.2-17.7-30.3-6.3-8.2-19.2-19.9-26.9-24.5-13.9-8.2-30.2-11.8-46-10.2M1250 687c-4.8.6-9.7 2-13.5 3.9-3.3 1.7-8.5 4.1-11.5 5.4-7.4 3.2-19.9 12.8-30.4 23.3-8.4 8.4-24.6 28.8-34.3 43.4-12.1 18.1-21.5 42.6-27.8 72.8-3.4 16.4-8.4 61.7-7.6 68.6.2 1.4 4.1-2.5 4.1-4 0-.8 1.1-2.6 2.5-4.1 1.4-1.6 5.3-7.5 8.7-13.3 8.8-14.7 16.7-24.9 28.3-36.5 13-13 21.5-20.2 27.3-23 2.6-1.3 5.6-3.2 6.6-4.4 1.1-1.1 2.4-2.1 3-2.1s6.8-2.7 13.7-6c11.2-5.4 16.6-7.3 35.4-12 2.8-.7 5.9-1.6 7-2s3.3-.8 4.8-.9c4.4-.1 22.4-5 31.2-8.3 7.3-2.8 10.6-4.5 19.8-10.3 6.7-4.3 12.4-21.8 11.3-34.6-2.2-24.3-20.3-46.7-43.6-54-7.7-2.4-23.7-3.2-35-1.9"/><path d="M1249.5 825.6c-23.4 4.1-43.4 14.1-54.3 27.2-11.9 14.3-20.8 35.5-25.8 61.8-2.5 13.3-2.3 37.5.4 47.6 6 22.2 20 43.8 39.6 61 29.5 25.8 72.3 29.9 111.1 10.8 11.5-5.7 24.5-15.5 29.8-22.6 12.5-16.5 14-18.9 18.2-29.7 8.3-21.4 11.3-40.2 10-63.7-1.1-21.1-3.3-27.5-15.7-45.7-22.8-33.7-51.1-48.5-92.2-48.2-7.2 0-16.7.7-21.1 1.5m56.2 36.8c13.2 6.3 25.7 16.9 36.8 31.1 15.7 20.2 21.4 35.6 22.2 59 .4 11.8.2 15.4-1.6 22.8-5.6 23.6-23.3 45.2-46.6 56.6-13 6.5-23.7 9.1-39.5 9.8-14.7.6-23.8-.5-36.5-4.8-29.6-9.9-51.1-34.8-58-67.2-2.1-9.8-1.9-29.2.4-39.8 2.3-10.3 7-22.8 11-29.1 3.9-6.1 19.9-26.1 21.9-27.2 1.7-1 1.5-.6-3.9 7.4-5.4 7.9-11.4 21-14.5 31.5-3.8 13.1-4.5 32.8-1.5 47.4 5.5 26.2 18.2 45.7 38.5 59 15.2 9.9 31 14.3 44.4 12.4 29.4-4.3 51.9-27.3 60.8-62.3 3-11.9 2.6-34.3-.9-47.5-8.3-31.2-17.7-44.7-38.8-55.5-5.3-2.7-10.2-5.7-11-6.6-2.5-3.1 7.9-1.2 16.8 3m-59.3 35.8c5.9 1.8 14.1 10 15.6 15.7 3.4 12.8-6.3 26.8-19.4 27.9-6.7.5-11.1-1.4-16.5-7.3-4.1-4.4-7.1-12.1-7.1-17.9.1-4.2 3.1-10.5 6.6-13.7 6.3-5.8 12.4-7.2 20.8-4.7m86.6 59.3c0 9-2.8 20.4-7 29.2-7.2 14.6-18.7 23.7-35.4 27.7-11.6 2.8-11.5-1.4.2-10.8 3.9-3 8.6-7.5 10.5-9.8 4.3-5.4 12.7-21 16.2-30.3 3.7-9.8 5.3-11.3 12.3-11.4l3.2-.1zm-117 10.9c0 .2-.7.7-1.6 1-.8.3-1.2.2-.9-.4.6-1 2.5-1.4 2.5-.6m12.3.3c-.7.2-2.1.2-3 0-1-.3-.4-.5 1.2-.5 1.7 0 2.4.2 1.8.5m-7 1c-.7.2-1.9.2-2.5 0-.7-.3-.2-.5 1.2-.5s1.9.2 1.3.5m26 2c-.7.2-2.1.2-3 0-1-.3-.4-.5 1.2-.5 1.7 0 2.4.2 1.8.5m19.4-.1c-.3.3-1.2.4-1.9.1-.8-.3-.5-.6.6-.6 1.1-.1 1.7.2 1.3.5m-38.1 28.6 2.9 3.3-3.2-2.9c-3.1-2.8-3.8-3.6-3-3.6.2 0 1.6 1.5 3.3 3.2M1759 905.3c11.1 33.3 16.2 47.3 19.2 52.2 2.1 3.6 3.8 4.5 3.8 2.1s-23.3-65.8-28.3-76.7c-5.6-12.7-3.9-5.3 5.3 22.4M993.7 887.8c-1.8 2-2.2 5.9-.8 8.1 1 1.6 9.8 2.5 15.7 1.6 3.7-.5 4.4-1 4.4-2.9 0-6.4-14.9-11.7-19.3-6.8M851.6 896c-6.2 1.9-8.7 7.8-4.8 11.3 3.3 3 8.1 1.9 13.5-3.1 3.2-3.1 3.4-4.5.7-7.2-2.1-2.1-4.7-2.4-9.4-1M1014.4 916.4c-.7 1.9 2 7 4.9 9.3 1.3 1 4.7 2.9 7.6 4.3 5.2 2.4 5.3 2.4 6.7.5.8-1 1.4-2.8 1.4-3.8 0-2.7-4.5-8.4-8-10.2-3.8-1.9-11.9-2-12.6-.1M838.3 926c-2.5 1.1-4.8 3-5.5 4.5-1 2.2-.8 2.9 1.2 5 2.6 2.8 6.6 3.2 11.9 1.4 5.5-1.9 6.6-6.5 2.6-10.4-2.9-3-4.6-3.1-10.2-.5M1782.3 963.5c-.3.9.7 3.9 2.2 6.8 4.1 7.8 12.2 28.9 15.5 40.3 6.2 21.1 14.2 68.2 17.5 102.8 2.4 25.7 3.7 61.3 3 87.1-2.3 90-8 127-31.6 202.2-5.3 16.8-6.1 22.7-1.7 13.3 3.1-7 5.2-12.8 7.3-21 .9-3.6 3.8-13.3 6.5-21.5 11.3-35 19.9-84.7 23-133.5 2.3-37.6.7-106.4-3.5-142.2-3.4-28.8-9-59.9-15.5-85.8-1.6-6.3-2.7-11.6-2.5-11.8 4.3-4.3 16.2 41.6 21.5 83.3 6.9 53.5 7.5 138.7 1.4 192.5-3.1 27.8-10.7 65.1-19.8 98.1-.7 2.4-.7 2.4.9.4 2.1-2.7 5.9-15.4 8.9-30 1.4-6.6 4.3-20.3 6.4-30.5 5.1-23.5 7.8-47.6 9.2-81 .6-14.6 1.6-30.8 2.3-36 1.4-11.6 1.4-21.7-.3-38-.7-6.9-1.6-23.3-2-36.5-1-29.6-2.1-42.2-5.5-59.5-1.4-7.4-3-16.4-3.6-20s-1.5-8.3-2-10.5c-1.8-6.8-2.2-11.2-1-11.9 2.1-1.3 1.1-3.2-2.4-4.9l-3.5-1.6 2.1-3.5c2.5-4.3 1.8-5.6-5.8-11.1-7.4-5.3-14.9-13-16.4-16.9-.6-1.7-1.9-4.9-2.9-7.1s-2.6-6.1-3.6-8.7c-2-5-3.1-5.9-4.1-3.3"/><path d="M1803.6 1378.6c-.4.9-.4 1.9-.1 2.2.2.3.7-.3 1.1-1.2s.4-1.9.1-2.2c-.2-.3-.7.3-1.1 1.2M1801.7 1383.3c-1.1 2.9-.9 4.3.4 3 .6-.6.9-1.9.7-2.9-.3-1.8-.4-1.8-1.1-.1M1799.6 1389.6c-.4.9-.4 1.9-.1 2.2.2.3.7-.3 1.1-1.2s.4-1.9.1-2.2c-.2-.3-.7.3-1.1 1.2M1623.5 1591c-.3.5-.1 1 .4 1 .6 0 1.1-.5 1.1-1 0-.6-.2-1-.4-1-.3 0-.8.4-1.1 1"/></svg>