<?xml version="1.0" standalone="no"?>
<!DOCTYPE svg PUBLIC "-//W3C//DTD SVG 20010904//EN"
 "http://www.w3.org/TR/2001/REC-SVG-20010904/DTD/svg10.dtd">
<svg version="1.0" xmlns="http://www.w3.org/2000/svg"
 width="1878.000000pt" height="1878.000000pt" viewBox="0 0 1878.000000 1878.000000"
 preserveAspectRatio="xMidYMid meet">
<metadata>
Created by potrace 1.14, written by Peter Selinger 2001-2017
</metadata>
<g transform="translate(0.000000,1878.000000) scale(0.100000,-0.100000)"
fill="#000000" stroke="none">
<path d="M15783 18769 c-5 -5 -129 -39 -274 -75 -256 -63 -542 -151 -644 -198
-27 -13 -88 -38 -135 -57 -79 -31 -83 -34 -55 -40 17 -4 53 -7 81 -8 45 -1 63
6 173 70 74 42 162 83 224 104 121 40 538 157 543 152 2 -2 -33 -27 -79 -57
-154 -101 -193 -140 -124 -126 17 4 77 29 132 56 56 28 107 50 114 50 8 0 10
7 6 19 -4 14 3 26 29 46 19 14 37 32 40 40 7 18 -17 38 -31 24z"/>
<path d="M14688 18585 c-285 -80 -451 -157 -610 -284 -101 -81 -298 -271 -280
-271 7 0 62 45 123 100 255 232 426 329 682 387 60 13 113 23 119 21 5 -2 -23
-28 -63 -58 -78 -59 -113 -100 -87 -100 9 0 51 32 94 71 80 72 203 159 223
159 6 0 11 5 11 10 0 18 -52 9 -212 -35z"/>
<path d="M16245 18554 c-63 -22 -196 -61 -329 -96 -62 -16 -57 -34 9 -29 114
8 417 104 423 135 5 22 -18 20 -103 -10z"/>
<path d="M2460 18544 c0 -13 -7 -15 -35 -10 -26 5 -35 3 -35 -7 0 -28 73 -133
150 -214 44 -46 80 -88 80 -93 0 -6 -10 -12 -23 -15 -19 -5 -721 11 -787 17
-17 2 -25 -2 -25 -12 0 -12 17 -16 75 -20 68 -5 85 -12 177 -63 56 -31 114
-59 128 -63 14 -3 25 -13 25 -20 0 -16 11 -12 -215 -94 -183 -67 -349 -146
-438 -210 -31 -22 -82 -73 -114 -113 -43 -54 -84 -89 -158 -138 -116 -77 -140
-113 -53 -78 79 32 92 30 96 -9 3 -29 -5 -42 -60 -100 -155 -165 -343 -454
-436 -671 -29 -68 -71 -187 -92 -265 -21 -78 -60 -185 -85 -238 -86 -182 -211
-624 -190 -674 4 -10 7 -36 6 -57 -2 -21 2 -44 8 -51 8 -10 7 -25 -4 -57 -23
-65 -12 -80 30 -39 38 37 35 40 59 -55 19 -76 21 -117 11 -237 -8 -96 -7 -98
19 -132 14 -19 38 -67 52 -108 48 -132 203 -425 278 -523 16 -22 70 -82 119
-133 48 -51 95 -109 104 -130 8 -20 22 -45 30 -54 17 -19 10 -38 -13 -38 -9 0
-30 11 -48 25 -38 29 -56 32 -56 8 0 -19 95 -113 177 -174 29 -22 62 -57 72
-77 25 -49 98 -120 187 -182 179 -124 640 -324 935 -404 31 -9 66 -24 78 -33
22 -18 22 -18 -123 -147 -171 -152 -215 -201 -198 -225 7 -9 16 -26 21 -37 7
-17 16 -20 37 -16 26 5 27 4 22 -36 -3 -22 -22 -67 -42 -99 -20 -32 -36 -64
-36 -72 0 -14 -17 -38 -178 -255 -71 -96 -100 -142 -93 -149 8 -8 18 -4 35 12
37 35 40 9 6 -45 -26 -42 -40 -94 -25 -94 3 0 17 7 30 16 l25 16 0 -43 c0 -38
-15 -67 -119 -234 -66 -104 -136 -206 -156 -225 -20 -19 -61 -80 -92 -135
-131 -234 -193 -354 -193 -372 0 -11 -34 -68 -75 -128 -41 -60 -75 -115 -75
-122 0 -24 30 -26 49 -4 24 27 75 28 94 1 8 -11 17 -17 20 -13 13 12 7 -14
-23 -112 -16 -54 -30 -107 -30 -119 0 -18 5 -15 34 19 31 37 34 38 40 18 5
-17 -19 -73 -94 -220 -103 -203 -132 -289 -95 -282 11 3 50 55 94 128 42 69
81 123 86 120 17 -7 8 -81 -25 -184 -17 -55 -34 -120 -37 -145 -3 -25 -14 -56
-23 -70 -22 -33 -40 -86 -40 -120 0 -15 -24 -104 -54 -196 -148 -463 -246
-800 -246 -848 0 -18 35 -22 45 -6 3 5 16 15 27 21 21 11 21 10 14 -67 -4 -44
-13 -117 -21 -164 -33 -198 -81 -649 -104 -980 -29 -405 -36 -635 -36 -1125 0
-584 0 -586 67 -795 43 -134 162 -400 179 -400 8 0 29 88 29 125 0 32 10 55
24 55 6 0 58 -96 116 -212 58 -116 136 -263 174 -327 85 -144 299 -461 327
-487 21 -19 21 -18 46 10 14 16 28 25 33 20 13 -14 114 -202 191 -355 140
-280 230 -410 412 -596 121 -124 149 -141 176 -109 9 10 -1 43 -44 145 -66
156 -67 166 -22 157 59 -12 111 -62 292 -284 99 -121 227 -275 286 -343 58
-68 143 -171 189 -229 152 -191 265 -312 587 -631 287 -284 384 -371 399 -356
9 8 -24 77 -57 118 -19 24 -29 46 -25 55 5 13 13 10 44 -17 21 -19 74 -61 118
-94 43 -33 172 -138 287 -233 114 -95 253 -208 309 -250 56 -42 103 -83 106
-90 2 -8 -30 4 -74 27 -128 66 -108 34 44 -70 93 -64 247 -139 285 -139 27 0
28 2 22 30 -5 23 -3 30 8 30 24 0 93 -32 229 -108 131 -73 233 -118 290 -129
l33 -6 -40 30 c-22 16 -82 51 -133 77 -51 27 -90 51 -87 54 12 12 98 -27 232
-105 78 -46 148 -83 156 -83 8 0 82 -29 164 -64 259 -111 732 -283 1003 -364
344 -104 852 -213 1145 -246 591 -68 630 -71 950 -71 740 1 1633 126 2350 332
243 69 678 214 865 288 463 183 1129 515 1508 752 59 37 179 116 267 177 88
60 259 177 380 259 274 185 328 229 490 392 194 195 349 382 548 660 31 44 72
98 91 120 33 38 33 39 45 17 9 -17 9 -33 -4 -74 -8 -28 -15 -63 -15 -77 0 -13
-36 -116 -80 -228 -44 -112 -80 -212 -80 -222 0 -40 21 -30 67 31 26 34 103
129 171 210 138 167 210 264 267 362 22 36 44 66 49 66 6 0 5 -5 -2 -12 -7 -7
-12 -20 -12 -30 0 -10 -12 -42 -26 -71 -19 -37 -22 -48 -10 -38 36 30 101 190
91 222 -4 10 22 74 63 156 38 76 113 233 167 348 88 190 142 296 195 380 10
17 19 38 19 47 1 10 12 25 25 33 14 9 29 30 35 46 8 23 16 29 40 29 60 0 76
-79 52 -255 -13 -94 -6 -145 22 -145 20 0 91 80 111 125 10 22 45 80 77 128
139 208 236 451 287 718 11 57 25 122 31 144 6 22 14 70 17 108 4 53 10 69 25
78 14 7 24 7 33 0 13 -11 11 -36 -18 -188 -9 -47 -12 -92 -8 -104 8 -19 9 -20
23 -4 7 10 35 81 60 159 l46 141 19 -40 c15 -34 18 -66 18 -210 1 -93 -3 -222
-8 -285 -9 -121 2 -186 26 -162 14 14 107 640 114 767 2 50 9 142 14 205 6 63
11 165 11 227 0 83 4 113 14 116 15 6 20 33 40 227 18 170 28 220 49 235 12 9
14 41 14 170 -1 284 14 555 31 555 18 0 50 -401 51 -617 0 -129 2 -153 15
-153 35 0 6 609 -40 830 -8 36 -19 133 -25 215 -22 296 -42 519 -57 618 -8 56
-16 116 -18 132 -7 64 -17 112 -30 160 -8 28 -29 108 -46 180 -55 231 -201
629 -235 642 -7 3 -49 -23 -91 -58 -150 -121 -357 -242 -463 -273 -54 -15 -57
-18 -180 -173 -286 -360 -538 -640 -886 -983 -245 -241 -328 -315 -624 -551
-588 -471 -1033 -691 -1910 -943 -462 -133 -1189 -296 -1317 -296 l-55 0 5 29
c33 162 34 585 2 816 -70 520 -224 936 -502 1359 -167 254 -335 460 -557 681
-505 502 -954 745 -1516 821 -58 7 -136 14 -173 14 -83 0 -92 13 -48 67 126
154 191 239 191 251 0 8 -9 12 -22 10 -15 -2 -51 -39 -105 -108 -46 -58 -106
-130 -135 -162 l-53 -56 -120 -27 c-304 -69 -574 -179 -864 -354 -84 -51 -154
-91 -155 -89 -1 2 -16 54 -34 117 -18 62 -60 184 -93 270 -103 263 -124 354
-154 656 -8 88 -20 178 -27 200 l-11 40 -13 -30 c-8 -18 -13 -73 -14 -140 -1
-152 -17 -351 -31 -377 -11 -20 -13 -20 -24 -5 -28 38 -49 227 -60 532 -11
303 -40 469 -129 732 -88 260 -128 345 -155 329 -16 -10 -7 -137 18 -241 10
-44 31 -132 46 -195 15 -63 34 -129 42 -146 8 -17 13 -40 12 -50 -2 -11 0 -25
4 -32 9 -14 0 -52 -13 -52 -19 0 -99 172 -186 395 -169 438 -495 908 -695
1003 -223 107 -508 26 -761 -216 -166 -158 -278 -412 -278 -627 0 -112 21
-188 62 -226 69 -65 86 -76 138 -92 78 -23 239 -57 271 -57 15 0 30 -4 33 -9
3 -5 26 -12 51 -15 25 -4 76 -18 115 -32 38 -13 75 -24 82 -24 25 0 115 -48
151 -80 48 -42 68 -102 43 -129 -17 -19 -18 -19 -73 5 -219 97 -506 87 -739
-26 -273 -132 -539 -456 -613 -745 -31 -122 -41 -206 -41 -370 0 -174 14 -246
66 -345 48 -92 209 -304 282 -371 l60 -56 5 -249 c5 -267 15 -331 62 -425 88
-173 271 -240 530 -195 222 39 432 117 650 241 55 31 104 57 108 58 5 1 14 -5
19 -14 9 -13 -2 -37 -52 -115 -110 -175 -285 -553 -321 -694 -11 -41 -26 -80
-35 -87 -43 -32 -331 -28 -540 6 -553 93 -1442 385 -1829 603 -136 77 -170
102 -300 228 -73 69 -172 151 -250 205 -144 99 -207 150 -339 269 -79 72 -182
187 -211 235 -5 9 -15 23 -22 31 -7 8 -26 31 -43 51 -16 20 -30 42 -30 48 0 6
-3 11 -8 11 -4 0 -16 17 -27 38 -11 20 -30 51 -42 67 -72 99 -167 386 -194
590 -16 117 -22 547 -10 710 21 270 93 679 168 943 20 70 46 163 57 207 12 44
26 89 33 100 6 11 25 64 42 119 17 54 35 103 40 110 5 6 30 61 56 121 82 192
235 504 340 695 56 102 126 230 155 285 121 226 447 797 544 953 121 195 220
330 338 463 156 174 459 447 733 658 264 204 327 247 660 451 58 35 105 71
105 78 0 21 -156 9 -285 -22 -55 -13 -136 -29 -180 -36 -141 -20 -558 -114
-580 -130 -5 -4 -35 -15 -65 -23 -31 -9 -76 -30 -101 -46 -48 -32 -89 -43 -95
-26 -5 13 150 110 307 193 106 57 121 62 178 62 62 0 172 23 201 41 15 10 -78
4 -127 -8 -13 -3 -23 -1 -23 5 0 5 48 29 108 53 59 24 132 57 162 75 68 39
266 142 425 222 66 33 235 110 375 170 140 60 363 159 495 219 358 164 676
287 1014 392 86 27 182 58 215 70 156 58 38 -15 -334 -206 -250 -129 -587
-315 -695 -384 -51 -32 -95 -59 -100 -59 -15 0 -155 -92 -155 -102 0 -23 122
27 171 70 19 16 49 37 67 46 18 9 63 36 100 60 37 24 180 103 317 176 138 73
356 190 485 260 295 160 363 194 428 215 58 19 63 27 29 42 -20 9 -39 4 -113
-28 -48 -22 -104 -44 -124 -49 -99 -25 -223 -62 -300 -89 -47 -16 -168 -55
-270 -87 -198 -61 -448 -156 -650 -249 -272 -124 -622 -275 -630 -270 -4 2
-13 33 -19 67 -45 230 -156 634 -255 924 -137 404 -360 920 -499 1156 -113
193 -286 395 -392 459 -57 34 -68 49 -37 50 12 0 10 3 -7 10 -30 12 -30 12
-37 -42 -5 -38 -1 -52 30 -101 19 -32 31 -58 28 -58 -4 0 -1 -4 6 -9 9 -5 14
-41 17 -109 4 -120 -5 -138 -55 -102 -16 12 -30 25 -30 30 0 6 -11 12 -25 16
-13 3 -27 14 -30 24 -3 9 -29 30 -58 45 -28 16 -65 39 -82 51 -16 12 -91 54
-165 92 -105 55 -153 74 -215 86 -44 8 -94 20 -110 26 -30 12 -302 43 -380 44
-22 0 -90 -6 -151 -13 -82 -9 -130 -9 -190 -1 -43 6 -142 15 -219 20 -77 6
-160 14 -185 20 -25 5 -135 14 -245 20 -144 8 -205 14 -222 25 -28 19 -33 19
-33 -1z m511 -68 c135 -14 337 -31 450 -38 l204 -12 200 -111 c205 -112 312
-182 352 -229 23 -26 57 -34 67 -17 12 19 -121 128 -215 175 -93 48 -219 124
-219 133 0 7 73 -6 210 -38 221 -52 308 -87 450 -182 81 -54 340 -307 340
-333 0 -8 -21 -25 -47 -37 l-48 -22 57 -5 c70 -6 98 -26 162 -116 199 -277
296 -449 365 -647 52 -149 58 -162 76 -147 11 9 2 44 -47 193 -33 100 -69 191
-79 203 -11 11 -19 27 -19 35 0 8 -15 38 -34 66 -19 29 -37 61 -41 72 -3 11
-25 39 -49 63 -23 24 -57 64 -74 89 -16 25 -37 51 -46 58 -9 8 -16 20 -16 28
0 9 -19 32 -43 53 -23 21 -51 54 -61 73 l-19 34 32 46 c44 64 61 118 61 191 0
80 -22 164 -65 245 -19 36 -33 66 -32 68 9 9 105 -67 164 -131 86 -92 191
-268 348 -581 177 -352 316 -700 430 -1075 67 -221 197 -743 193 -773 -2 -17
-17 -26 -69 -42 -36 -11 -206 -91 -378 -178 -172 -88 -314 -157 -317 -155 -2
2 3 58 10 124 44 373 23 635 -75 929 -140 419 -474 766 -906 939 -205 82 -378
116 -583 116 -213 0 -375 -36 -567 -125 -156 -73 -414 -253 -503 -352 -444
-490 -653 -1165 -535 -1728 29 -142 31 -175 10 -175 -66 0 -360 223 -528 400
-52 55 -126 146 -164 202 -160 236 -228 409 -247 623 -9 101 8 351 28 406 23
66 32 139 17 139 -6 0 -33 -30 -59 -67 -60 -85 -128 -160 -138 -151 -4 4 11
43 34 85 22 43 56 107 74 143 18 36 36 67 41 68 4 2 7 8 7 14 0 26 110 166
247 314 57 62 103 114 103 116 0 3 -13 3 -30 0 -21 -3 -30 0 -30 10 0 30 74
78 258 168 105 51 192 98 192 103 0 13 -73 1 -178 -30 -48 -14 -108 -28 -135
-33 -47 -7 -47 -7 -30 13 22 25 187 104 342 164 141 55 432 131 681 179 225
42 254 50 270 69 18 22 6 41 -44 72 -24 15 -87 69 -139 118 -52 50 -113 105
-136 123 -59 47 -54 56 27 48 294 -30 692 -109 807 -161 17 -8 75 -32 130 -55
151 -64 556 -185 458 -138 -13 6 -23 15 -23 19 0 4 -21 11 -47 15 -53 7 -109
28 -133 48 -8 8 -53 26 -99 41 -47 14 -102 35 -123 46 -21 11 -58 24 -81 29
-23 5 -87 23 -142 40 -125 39 -382 90 -632 126 -365 52 -158 59 328 10z m1019
-67 c354 -61 509 -140 768 -392 82 -80 107 -122 82 -137 -19 -12 -35 2 -133
111 -181 202 -372 305 -690 374 -63 13 -146 28 -185 31 -46 4 -77 13 -93 26
l-24 20 80 -7 c44 -3 131 -15 195 -26z m-1335 -235 c56 -5 130 -42 130 -64 0
-11 -53 -24 -210 -53 l-209 -40 -86 28 c-115 37 -220 92 -220 116 0 15 10 19
68 21 91 4 465 -2 527 -8z m-1965 -3003 c0 -32 -72 -266 -86 -280 -12 -12 -13
12 -3 65 13 74 71 254 81 254 4 0 8 -17 8 -39z m3900 -264 c0 -8 -47 -32 -107
-57 -153 -62 -268 -117 -300 -144 -26 -21 -252 -132 -319 -156 -28 -9 -27 -8
11 26 102 91 247 167 520 273 99 39 183 70 188 71 4 0 7 -6 7 -13z m2008
-4981 c244 -253 330 -441 319 -696 -4 -97 -10 -131 -39 -215 -108 -312 -303
-556 -540 -675 -209 -105 -448 -91 -716 42 -85 41 -120 66 -193 135 -117 112
-158 177 -210 332 -64 194 -65 313 -2 516 48 152 116 264 243 398 128 136 261
228 365 253 25 6 15 -7 -66 -87 -196 -195 -302 -379 -349 -609 -19 -88 -21
-126 -17 -240 6 -152 24 -232 73 -335 66 -139 171 -242 319 -315 105 -52 179
-70 290 -70 187 0 321 56 456 190 77 76 93 98 143 200 78 160 107 277 113 457
12 332 -73 564 -281 764 -61 59 -72 79 -42 79 8 0 68 -56 134 -124z m-743
-173 c169 -57 218 -285 83 -385 -147 -110 -328 -22 -328 160 0 48 7 73 36 130
19 39 47 81 61 92 31 25 82 26 148 3z m3713 -474 c407 -66 794 -243 1131 -517
284 -231 636 -620 848 -937 342 -513 524 -1083 540 -1690 13 -506 -87 -824
-408 -1305 -297 -443 -706 -760 -1274 -983 -364 -144 -626 -195 -940 -183
-576 20 -1210 259 -1683 633 -133 104 -413 387 -500 504 -261 352 -392 688
-458 1184 -24 175 -24 451 -1 605 36 234 101 464 214 750 315 799 834 1428
1418 1718 151 75 293 127 510 187 94 25 176 48 184 51 8 3 6 -7 -8 -28 -64
-102 -131 -179 -369 -420 -237 -240 -281 -293 -244 -293 21 0 237 193 376 336
77 80 168 183 201 229 90 124 131 167 173 178 45 13 128 7 290 -19z m-2928 -3
c0 -2 -8 -10 -17 -17 -16 -13 -17 -12 -4 4 13 16 21 21 21 13z m-60 -69 c0 -2
-12 -14 -27 -28 l-28 -24 24 28 c23 25 31 32 31 24z m97 -109 c-2 -18 -4 -4
-4 32 0 36 2 50 4 33 2 -18 2 -48 0 -65z m-177 38 c0 -2 -8 -10 -17 -17 -16
-13 -17 -12 -4 4 13 16 21 21 21 13z m167 -163 c-3 -10 -5 -4 -5 12 0 17 2 24
5 18 2 -7 2 -21 0 -30z m-167 -326 c0 -2 -10 -12 -22 -23 l-23 -19 19 23 c18
21 26 27 26 19z m10995 -3477 c-47 -425 -134 -756 -256 -977 -64 -115 -209
-301 -209 -267 0 18 71 258 84 283 8 14 41 127 75 251 34 124 69 246 77 271 8
25 19 70 23 100 5 30 15 68 22 84 6 17 13 39 15 50 11 71 60 209 115 323 l64
133 3 -53 c2 -29 -4 -118 -13 -198z m-15440 -713 c62 -186 209 -552 231 -578
8 -8 14 -24 14 -33 0 -10 7 -33 16 -51 9 -19 14 -42 12 -52 -4 -14 -8 -11 -24
16 -10 18 -31 52 -46 75 -15 22 -28 48 -28 57 0 9 -9 27 -19 41 -66 83 -222
527 -236 673 -6 53 -5 58 8 42 8 -9 40 -95 72 -190z m14967 -579 c-7 -7 -12
-8 -12 -2 0 14 12 26 19 19 2 -3 -1 -11 -7 -17z m-452 -134 c0 -18 -144 -341
-216 -486 -108 -216 -198 -367 -276 -464 -35 -42 -74 -91 -88 -109 -49 -63
-91 -107 -97 -102 -9 9 58 197 77 215 9 9 23 28 30 40 18 36 90 248 90 267 0
9 22 60 49 113 27 54 67 135 89 182 47 100 118 182 241 281 81 65 101 78 101
63z"/>
<path d="M9200 8324 c-253 -21 -536 -102 -774 -220 -258 -128 -458 -299 -569
-485 -21 -35 -51 -107 -69 -159 -26 -82 -31 -114 -35 -230 -6 -164 8 -235 72
-365 59 -120 125 -206 269 -350 132 -131 478 -414 634 -518 213 -141 388 -211
532 -211 159 -1 252 44 545 264 402 302 655 563 784 810 89 172 118 324 91
487 -34 213 -119 379 -280 547 -208 216 -472 353 -784 406 -110 18 -330 31
-416 24z m293 -559 c195 -26 393 -85 558 -168 95 -48 108 -70 42 -75 -28 -2
-75 8 -145 32 -249 85 -468 120 -748 120 -218 0 -334 -13 -540 -59 -60 -14
-117 -25 -126 -25 -16 0 -16 1 0 19 60 66 306 140 546 164 94 10 311 5 413 -8z"/>
<path d="M8031 8227 c-98 -49 -208 -187 -250 -314 -25 -76 -28 -165 -5 -184
20 -17 26 -8 59 93 44 129 103 207 227 297 73 52 94 82 78 110 -14 28 -53 27
-109 -2z"/>
<path d="M10527 8163 c-27 -27 22 -89 97 -123 71 -31 123 -84 162 -164 35 -71
58 -94 79 -76 8 7 15 21 15 31 0 53 -87 206 -149 262 -56 50 -181 93 -204 70z"/>
<path d="M9320 5454 c-19 -2 -80 -9 -135 -15 -109 -11 -266 -40 -388 -71 -84
-21 -107 -18 -150 18 -23 20 -32 22 -55 13 -82 -31 -128 -128 -120 -253 8
-125 74 -216 155 -216 47 0 70 14 93 59 10 21 33 50 49 64 54 45 238 107 426
144 123 23 364 24 505 0 182 -31 250 -59 325 -136 56 -57 113 -85 157 -76 80
18 170 166 176 290 5 95 -13 145 -60 168 -50 25 -77 15 -153 -54 -75 -68 -92
-71 -168 -33 -135 69 -257 95 -462 99 -88 2 -176 1 -195 -1z"/>
<path d="M4870 18452 c0 -4 36 -36 81 -72 250 -200 433 -470 592 -875 96 -245
347 -988 417 -1235 11 -41 42 -141 67 -222 l46 -148 31 0 c19 0 150 58 346
153 173 85 355 171 403 193 48 21 83 40 78 42 -6 2 -48 -13 -93 -33 -46 -21
-144 -63 -218 -95 -75 -31 -209 -96 -298 -144 -90 -47 -173 -86 -186 -86 -46
0 -70 53 -127 270 -16 63 -47 169 -68 235 -22 66 -49 152 -61 190 -96 310
-142 453 -172 535 -20 52 -59 158 -88 235 -59 161 -199 463 -238 515 -15 19
-34 48 -43 65 -40 74 -89 147 -137 201 -29 32 -52 61 -52 65 0 4 -35 36 -77
70 -43 34 -94 77 -113 95 -34 32 -90 61 -90 46z"/>
<path d="M15853 18404 c-59 -13 -8 -21 150 -23 323 -3 561 -35 831 -111 202
-56 268 -82 376 -146 74 -44 96 -64 70 -64 -5 0 -10 -4 -10 -10 0 -14 53 -13
85 2 34 15 32 26 -10 44 -20 8 -101 46 -181 84 -171 82 -192 90 -394 141 -240
61 -387 80 -660 84 -129 2 -245 1 -257 -1z"/>
<path d="M13656 18308 c-116 -116 -173 -203 -291 -443 -149 -305 -297 -679
-466 -1185 -90 -266 -119 -359 -189 -597 l-21 -73 -51 0 c-55 0 -171 45 -165
64 2 6 16 17 31 24 16 8 25 19 22 27 -2 7 4 15 15 18 17 5 19 9 10 24 -23 39
-51 64 -93 82 -68 30 -319 75 -678 121 -281 36 -266 31 -245 83 5 11 3 17 -7
17 -20 0 -38 -21 -38 -45 0 -32 20 -45 66 -45 24 0 74 -7 113 -15 39 -8 166
-30 282 -50 183 -30 506 -100 518 -111 12 -11 -14 -11 -109 2 -135 18 -307 17
-495 -1 -82 -8 -154 -15 -160 -16 -5 0 -1 -4 10 -8 11 -4 101 -4 200 1 241 12
384 1 523 -38 56 -16 68 -38 26 -48 -14 -4 -86 -7 -160 -7 -74 -1 -134 -4
-134 -8 0 -13 169 -87 260 -115 100 -30 279 -73 626 -150 382 -85 626 -156
859 -248 106 -42 128 -55 119 -69 -10 -16 -52 -9 -266 45 -117 30 -237 58
-267 61 -122 16 -30 -24 335 -146 360 -120 580 -199 749 -270 61 -26 73 -35
63 -44 -17 -16 -222 -2 -367 26 -57 11 -105 18 -107 16 -14 -14 43 -51 143
-92 65 -26 204 -88 308 -137 105 -49 265 -124 357 -166 96 -44 168 -83 168
-91 0 -8 -6 -11 -17 -6 -49 18 -183 53 -218 56 -30 3 -40 0 -40 -11 0 -10 62
-41 180 -91 215 -90 247 -107 242 -122 -2 -6 -14 -14 -27 -17 -31 -7 -35 -23
-10 -45 20 -18 442 -142 505 -148 31 -3 29 28 -4 66 l-31 34 102 52 c189 97
338 211 533 406 220 219 372 518 432 850 21 113 23 425 5 540 -19 115 -57 262
-92 352 -53 138 -37 139 63 1 91 -126 113 -162 312 -503 87 -148 274 -464 416
-701 142 -237 268 -455 279 -484 25 -64 37 -46 -152 -230 -130 -128 -155 -160
-125 -160 18 0 274 239 297 278 24 39 32 40 59 6 35 -45 28 -93 -23 -156 -122
-150 -325 -288 -527 -359 -61 -21 -67 -25 -76 -60 -15 -57 15 -79 52 -39 10
11 79 52 154 91 75 39 172 95 216 123 44 29 106 65 138 81 31 15 57 33 57 38
0 6 7 19 17 29 25 28 8 33 -27 8 -55 -39 -43 -14 28 62 119 125 181 272 166
393 -10 78 -20 86 -34 24 -27 -126 -110 -319 -110 -256 0 27 -98 213 -178 340
-45 70 -197 322 -338 560 -571 962 -690 1136 -943 1387 -186 185 -347 300
-589 420 -228 112 -458 158 -742 147 -226 -9 -387 -44 -570 -125 -224 -98
-326 -168 -513 -352 -76 -74 -145 -141 -154 -149 -8 -8 -39 -44 -69 -82 -63
-79 -68 -83 -97 -75 -17 4 -27 21 -42 68 -10 35 -21 72 -22 83 -2 11 -12 72
-23 135 -46 266 -59 507 -34 640 17 92 18 120 2 120 -7 0 -22 -15 -32 -33 -40
-66 -76 -139 -76 -151 0 -7 -8 -21 -18 -32 -10 -10 -51 -89 -91 -174 -39 -85
-103 -211 -140 -280 -95 -172 -111 -206 -111 -228 0 -22 -35 -70 -44 -61 -7 7
90 269 185 499 75 183 252 537 331 665 75 120 149 188 239 221 38 14 74 22 79
19 19 -12 10 -34 -22 -56 -18 -13 -43 -32 -55 -43 -11 -12 -35 -32 -51 -45
-31 -24 -52 -81 -52 -141 0 -44 15 -36 78 41 30 35 79 93 110 128 31 35 57 70
58 78 2 8 12 26 24 38 l22 23 -44 7 c-32 5 -61 1 -106 -14 -75 -26 -72 -26
-72 -1 0 42 -41 20 -134 -72z"/>
<path d="M16981 18042 l-133 -15 50 -32 c27 -17 94 -46 148 -65 55 -18 144
-58 200 -87 55 -29 104 -53 109 -53 18 0 -23 34 -69 57 -72 36 -166 131 -166
168 0 3 21 5 48 5 50 0 78 12 69 27 -9 14 -106 13 -256 -5z"/>
<path d="M16740 17982 c0 -15 27 -74 47 -104 10 -15 59 -62 109 -105 287 -249
563 -524 694 -692 24 -29 69 -81 102 -115 33 -33 71 -78 84 -98 13 -21 28 -38
33 -38 12 0 122 -150 189 -256 110 -176 194 -374 241 -569 25 -104 26 -122 24
-342 -2 -224 6 -288 24 -185 12 72 8 408 -6 492 -8 41 -31 133 -53 204 -22 71
-41 146 -44 165 l-4 36 19 -25 c11 -14 27 -34 36 -45 16 -19 16 -19 10 10 -20
102 -30 134 -53 175 -22 39 -32 61 -32 71 0 17 -153 319 -218 429 -73 126
-169 267 -282 420 -205 275 -329 368 -595 445 -48 14 -90 23 -93 21 -5 -6 33
-23 158 -72 181 -70 254 -122 390 -280 234 -271 394 -529 582 -941 31 -67 45
-123 31 -123 -5 0 -67 82 -138 182 -72 100 -157 212 -190 249 -108 120 -160
183 -215 254 -123 160 -405 456 -597 628 -62 55 -113 104 -113 110 0 5 15 6
36 2 24 -4 34 -3 29 4 -3 6 -12 11 -20 11 -18 0 -91 33 -142 65 -24 14 -43 22
-43 17z"/>
<path d="M10650 16931 c-30 -21 -68 -41 -85 -43 -60 -10 -584 -130 -760 -174
-338 -85 -688 -189 -1105 -329 -107 -36 -267 -86 -355 -111 -213 -60 -403
-123 -410 -134 -10 -16 26 -11 105 14 41 13 120 34 175 46 55 12 226 65 380
117 478 161 883 282 1260 378 203 52 543 127 635 141 l45 7 -37 -41 c-21 -23
-38 -47 -38 -53 0 -25 227 158 251 202 15 28 0 23 -61 -20z"/>
<path d="M10310 16634 c-41 -26 -103 -59 -137 -75 -62 -29 -84 -59 -43 -59 28
0 212 98 225 120 5 10 16 27 23 39 7 11 11 21 10 20 -2 0 -37 -20 -78 -45z"/>
<path d="M11340 16504 c-124 -18 -272 -36 -330 -40 -58 -4 -113 -11 -122 -16
-10 -5 -57 -11 -105 -14 -49 -3 -110 -14 -138 -24 -27 -10 -84 -23 -125 -29
-41 -7 -79 -16 -84 -21 -14 -14 9 -35 26 -24 7 5 20 7 30 6 9 -2 19 2 22 7 4
6 13 8 21 5 8 -3 97 10 197 30 101 19 329 54 506 78 298 39 380 56 341 70 -8
3 -115 -10 -239 -28z"/>
<path d="M8340 16409 c-124 -21 -286 -43 -360 -50 -74 -6 -151 -15 -170 -20
-46 -11 -160 -83 -139 -87 9 -2 70 8 135 22 66 14 173 36 239 50 66 14 205 41
309 61 185 36 290 64 236 63 -14 0 -126 -18 -250 -39z"/>
<path d="M18250 16268 c0 -7 5 -20 10 -28 8 -12 10 -9 10 13 0 15 -4 27 -10
27 -5 0 -10 -6 -10 -12z"/>
<path d="M17917 15663 c-4 -6 12 -64 34 -129 46 -138 83 -280 99 -379 12 -75
42 -155 59 -155 20 0 43 47 33 67 -5 10 -44 135 -87 279 -58 193 -85 269 -105
294 -15 18 -30 29 -33 23z"/>
<path d="M18102 15433 c10 -49 28 -148 38 -222 10 -73 21 -136 24 -139 4 -3 6
25 6 62 0 43 4 65 10 61 16 -10 48 35 55 77 4 20 12 44 20 54 7 10 11 24 8 31
-10 26 -22 12 -29 -32 l-6 -45 -38 38 c-24 25 -41 56 -49 87 -7 27 -18 63 -26
82 -26 62 -33 33 -13 -54z"/>
<path d="M15450 14339 c57 -49 243 -134 438 -201 100 -34 179 -65 175 -69 -14
-14 -137 -37 -303 -59 -195 -24 -216 -29 -204 -39 5 -5 29 -13 54 -19 59 -14
160 -2 360 45 163 37 225 57 250 79 20 19 6 29 -65 44 -100 21 -282 84 -428
149 -160 71 -245 101 -284 101 l-28 -1 35 -30z"/>
<path d="M17779 14338 c-24 -59 -100 -178 -121 -189 -10 -6 -44 -33 -74 -60
-66 -60 -256 -155 -466 -233 -169 -63 -204 -80 -143 -70 106 17 362 117 576
224 65 33 119 56 119 52 0 -17 -128 -159 -191 -211 -104 -87 -211 -152 -431
-261 l-208 -103 -147 -8 c-157 -9 -207 -20 -217 -46 -4 -9 -5 -17 -3 -19 3 -4
215 23 258 32 31 7 46 -10 29 -31 -17 -21 -7 -19 48 9 26 13 106 48 177 79 72
30 166 76 210 101 44 25 96 49 115 52 63 12 110 44 228 157 135 128 141 135
142 161 0 10 18 39 41 63 40 44 69 97 69 128 0 14 -4 13 -26 -4 -25 -20 -54
-28 -54 -15 0 3 11 20 24 37 51 67 94 187 67 187 -5 0 -15 -15 -22 -32z"/>
<path d="M15685 13870 c-8 -12 -5 -17 66 -111 86 -113 208 -300 279 -424 100
-178 150 -235 335 -385 50 -40 110 -92 135 -116 83 -78 145 -97 213 -62 24 12
21 23 -11 47 -41 29 -82 38 -82 17 0 -24 -29 -19 -86 13 -77 44 -304 252 -304
279 0 18 22 24 51 14 17 -7 39 -4 74 8 28 10 76 23 109 29 57 10 86 25 86 42
0 16 -219 10 -287 -7 -85 -21 -91 -16 -183 137 -40 68 -102 167 -137 220 -34
53 -63 99 -63 104 0 4 -13 23 -30 42 -16 18 -30 38 -30 43 0 5 28 -4 63 -20
63 -28 402 -140 425 -140 8 0 12 8 10 17 -5 28 -79 62 -246 113 -203 62 -260
84 -314 120 -46 31 -63 36 -73 20z"/>
<path d="M16835 13679 c-22 -5 -77 -6 -122 -3 -73 6 -84 4 -90 -11 -10 -27 27
-51 87 -58 45 -5 62 -1 142 33 50 22 94 42 96 45 8 8 -68 4 -113 -6z"/>
<path d="M16432 13340 c-40 -38 -5 -60 95 -60 50 0 95 17 138 54 l30 25 -121
1 c-107 0 -123 -2 -142 -20z"/>
<path d="M16056 13105 c20 -25 87 -83 148 -129 164 -124 258 -215 313 -304 26
-42 135 -203 242 -357 254 -365 276 -401 398 -653 57 -118 148 -298 203 -400
96 -180 210 -420 210 -442 0 -5 -3 -10 -7 -10 -5 0 -69 49 -144 109 -139 112
-199 174 -199 209 0 11 -7 25 -15 32 -8 7 -15 18 -15 26 0 7 -13 28 -28 46
-16 18 -36 51 -46 73 -10 22 -23 45 -30 50 -6 6 -28 43 -49 83 -22 41 -47 82
-58 93 -10 10 -22 31 -25 45 -4 15 -15 35 -25 45 -11 11 -19 28 -19 38 0 10
-6 21 -14 24 -8 3 -25 25 -39 49 -252 448 -307 548 -307 561 0 9 -6 20 -14 24
-17 10 -194 278 -231 351 -27 51 -38 61 -50 42 -8 -12 36 -97 95 -185 99 -147
183 -291 359 -619 193 -358 393 -696 448 -757 18 -20 33 -43 33 -51 0 -8 6
-23 14 -34 8 -10 12 -29 10 -41 -4 -15 3 -31 25 -55 61 -64 210 -290 259 -391
28 -56 107 -257 177 -447 70 -190 181 -491 247 -670 132 -357 195 -539 223
-642 10 -38 22 -68 26 -68 15 0 9 43 -16 115 -14 39 -34 102 -44 140 -23 83
-125 378 -289 830 -174 483 -195 545 -188 552 11 11 47 -31 76 -87 15 -30 52
-122 83 -205 65 -176 341 -988 383 -1125 16 -52 30 -87 32 -78 6 30 -117 444
-152 515 -19 37 -39 98 -45 134 -10 59 -55 195 -190 567 -23 62 -41 121 -41
131 0 29 76 51 118 34 46 -19 47 -1 0 57 -50 63 -168 267 -168 291 0 11 15 21
45 29 25 7 48 17 52 23 13 21 -31 38 -95 36 -62 -2 -65 -1 -90 31 -27 34 -79
142 -133 277 -15 40 -134 283 -263 540 -249 497 -305 592 -512 870 -120 160
-148 202 -142 209 4 3 34 -30 129 -139 113 -130 202 -264 323 -484 37 -67 87
-149 111 -182 37 -51 50 -61 74 -61 17 0 32 4 36 9 3 6 -24 43 -60 83 -66 73
-90 107 -267 378 -186 286 -370 490 -663 734 -194 163 -213 176 -238 176 -15
0 -12 -8 19 -45z m1345 -2221 c30 -26 113 -103 184 -173 129 -124 131 -127
164 -213 18 -48 30 -92 26 -98 -3 -5 -19 -10 -35 -10 -41 0 -137 92 -197 188
-27 43 -84 131 -129 197 -44 66 -83 128 -87 138 -11 30 17 19 74 -29z"/>
<path d="M7205 13006 c-82 -26 -178 -90 -190 -125 -8 -28 12 -71 33 -71 22 0
230 137 245 161 15 23 1 49 -25 48 -13 0 -41 -6 -63 -13z"/>
<path d="M12270 12944 c-171 -30 -310 -98 -474 -232 -155 -127 -330 -381 -371
-539 -20 -76 -19 -93 3 -93 18 0 43 54 123 273 56 153 278 371 484 474 194 98
421 109 650 31 245 -83 439 -232 607 -467 66 -91 191 -243 227 -275 40 -36 35
-6 -9 57 -218 310 -368 485 -485 564 -128 86 -292 156 -447 189 -73 15 -261
27 -308 18z"/>
<path d="M12290 12779 c-249 -53 -456 -186 -609 -390 -63 -83 -137 -207 -128
-215 2 -3 43 41 89 98 202 245 365 362 605 434 74 23 107 27 213 27 115 1 133
-2 220 -31 170 -57 291 -128 415 -244 42 -39 78 -68 81 -65 14 14 -13 52 -81
111 -137 120 -277 200 -448 258 -122 41 -226 46 -357 17z"/>
<path d="M6125 12645 c-255 -56 -482 -222 -650 -475 -60 -91 -125 -212 -141
-266 -22 -73 11 -53 59 36 196 363 376 540 642 629 456 153 964 -73 1140 -507
14 -34 37 -108 51 -165 28 -111 39 -137 56 -137 19 0 1 132 -32 232 -39 117
-105 241 -172 326 -128 160 -344 282 -581 327 -96 18 -289 18 -372 0z"/>
<path d="M6230 12473 c-199 -20 -449 -145 -637 -317 -63 -59 -145 -166 -125
-166 4 0 50 36 102 81 169 143 314 228 490 284 66 21 111 29 200 33 134 5 202
-8 318 -63 158 -75 264 -165 429 -367 104 -127 120 -144 129 -135 7 7 -129
242 -177 303 -63 82 -192 199 -269 245 -139 82 -302 118 -460 102z"/>
<path d="M12500 11910 c-48 -6 -97 -20 -135 -39 -33 -17 -85 -41 -115 -54 -74
-32 -199 -128 -304 -233 -84 -84 -246 -288 -343 -434 -121 -181 -215 -426
-278 -728 -34 -164 -84 -617 -76 -686 2 -14 41 25 41 40 0 8 11 26 25 41 14
16 53 75 87 133 88 147 167 249 283 365 130 130 215 202 273 230 26 13 56 32
66 44 11 11 24 21 30 21 6 0 68 27 137 60 112 54 166 73 354 120 28 7 59 16
70 20 11 4 33 8 48 9 44 1 224 50 312 83 73 28 106 45 198 103 67 43 124 218
113 346 -22 243 -203 467 -436 540 -77 24 -237 32 -350 19z"/>
<path d="M12495 10524 c-234 -41 -434 -141 -543 -272 -119 -143 -208 -355
-258 -618 -25 -133 -23 -375 4 -476 60 -222 200 -438 396 -610 295 -258 723
-299 1111 -108 115 57 245 155 298 226 125 165 140 189 182 297 83 214 113
402 100 637 -11 211 -33 275 -157 457 -228 337 -511 485 -922 482 -72 0 -167
-7 -211 -15z m562 -368 c132 -63 257 -169 368 -311 157 -202 214 -356 222
-590 4 -118 2 -154 -16 -228 -56 -236 -233 -452 -466 -566 -130 -65 -237 -91
-395 -98 -147 -6 -238 5 -365 48 -296 99 -511 348 -580 672 -21 98 -19 292 4
398 23 103 70 228 110 291 39 61 199 261 219 272 17 10 15 6 -39 -74 -54 -79
-114 -210 -145 -315 -38 -131 -45 -328 -15 -474 55 -262 182 -457 385 -590
152 -99 310 -143 444 -124 294 43 519 273 608 623 30 119 26 343 -9 475 -83
312 -177 447 -388 555 -53 27 -102 57 -110 66 -25 31 79 12 168 -30z m-593
-358 c59 -18 141 -100 156 -157 34 -128 -63 -268 -194 -279 -67 -5 -111 14
-165 73 -41 44 -71 121 -71 179 1 42 31 105 66 137 63 58 124 72 208 47z m866
-593 c0 -90 -28 -204 -70 -292 -72 -146 -187 -237 -354 -277 -116 -28 -115 14
2 108 39 30 86 75 105 98 43 54 127 210 162 303 37 98 53 113 123 114 l32 1 0
-55z m-1170 -109 c0 -2 -7 -7 -16 -10 -8 -3 -12 -2 -9 4 6 10 25 14 25 6z
m123 -3 c-7 -2 -21 -2 -30 0 -10 3 -4 5 12 5 17 0 24 -2 18 -5z m-70 -10 c-7
-2 -19 -2 -25 0 -7 3 -2 5 12 5 14 0 19 -2 13 -5z m260 -20 c-7 -2 -21 -2 -30
0 -10 3 -4 5 12 5 17 0 24 -2 18 -5z m194 1 c-3 -3 -12 -4 -19 -1 -8 3 -5 6 6
6 11 1 17 -2 13 -5z m-381 -286 l29 -33 -32 29 c-31 28 -38 36 -30 36 2 0 16
-15 33 -32z"/>
<path d="M17590 9727 c111 -333 162 -473 192 -522 21 -36 38 -45 38 -21 0 24
-233 658 -283 767 -56 127 -39 53 53 -224z"/>
<path d="M9937 9902 c-18 -20 -22 -59 -8 -81 10 -16 98 -25 157 -16 37 5 44
10 44 29 0 64 -149 117 -193 68z"/>
<path d="M8516 9820 c-62 -19 -87 -78 -48 -113 33 -30 81 -19 135 31 32 31 34
45 7 72 -21 21 -47 24 -94 10z"/>
<path d="M10144 9616 c-7 -19 20 -70 49 -93 13 -10 47 -29 76 -43 52 -24 53
-24 67 -5 8 10 14 28 14 38 0 27 -45 84 -80 102 -38 19 -119 20 -126 1z"/>
<path d="M8383 9520 c-25 -11 -48 -30 -55 -45 -10 -22 -8 -29 12 -50 26 -28
66 -32 119 -14 55 19 66 65 26 104 -29 30 -46 31 -102 5z"/>
<path d="M17823 9145 c-3 -9 7 -39 22 -68 41 -78 122 -289 155 -403 62 -211
142 -682 175 -1028 24 -257 37 -613 30 -871 -23 -900 -80 -1270 -316 -2022
-53 -168 -61 -227 -17 -133 31 70 52 128 73 210 9 36 38 133 65 215 113 350
199 847 230 1335 23 376 7 1064 -35 1422 -34 288 -90 599 -155 858 -16 63 -27
116 -25 118 43 43 162 -416 215 -833 69 -535 75 -1387 14 -1925 -31 -278 -107
-651 -198 -981 -7 -24 -7 -24 9 -4 21 27 59 154 89 300 14 66 43 203 64 305
51 235 78 476 92 810 6 146 16 308 23 360 14 116 14 217 -3 380 -7 69 -16 233
-20 365 -10 296 -21 422 -55 595 -14 74 -30 164 -36 200 -6 36 -15 83 -20 105
-18 68 -22 112 -10 119 21 13 11 32 -24 49 l-35 16 21 35 c25 43 18 56 -58
111 -74 53 -149 130 -164 169 -6 17 -19 49 -29 71 -10 22 -26 61 -36 87 -20
50 -31 59 -41 33z"/>
<path d="M18036 4994 c-4 -9 -4 -19 -1 -22 2 -3 7 3 11 12 4 9 4 19 1 22 -2 3
-7 -3 -11 -12z"/>
<path d="M18017 4947 c-11 -29 -9 -43 4 -30 6 6 9 19 7 29 -3 18 -4 18 -11 1z"/>
<path d="M17996 4884 c-4 -9 -4 -19 -1 -22 2 -3 7 3 11 12 4 9 4 19 1 22 -2 3
-7 -3 -11 -12z"/>
<path d="M16235 2870 c-3 -5 -1 -10 4 -10 6 0 11 5 11 10 0 6 -2 10 -4 10 -3
0 -8 -4 -11 -10z"/>
</g>
</svg>
